<?xml version="1.0" standalone="no"?>
<!DOCTYPE svg PUBLIC "-//W3C//DTD SVG 20010904//EN"
 "http://www.w3.org/TR/2001/REC-SVG-20010904/DTD/svg10.dtd">
<svg version="1.0" xmlns="http://www.w3.org/2000/svg"
 width="6400.000000pt" height="4800.000000pt" viewBox="0 0 6400.000000 4800.000000"
 preserveAspectRatio="xMidYMid meet">

<g transform="translate(0.000000,4800.000000) scale(0.100000,-0.100000)"
fill="#000000" stroke="none">
<path d="M28540 46103 c-62 -4 -180 -23 -210 -34 -14 -5 -59 -14 -100 -19
-220 -28 -395 -91 -580 -209 -174 -110 -365 -310 -498 -522 -58 -92 -167 -309
-192 -380 -7 -20 -21 -47 -30 -59 -17 -22 -17 -21 -34 56 -16 73 -33 138 -58
224 -28 96 -113 296 -153 361 -52 85 -151 192 -198 213 -148 68 -253 57 -373
-36 -55 -43 -67 -48 -113 -48 -156 0 -312 -203 -418 -545 -8 -27 -19 -59 -23
-70 -5 -11 -11 -31 -13 -45 -3 -14 -13 -52 -22 -85 -18 -63 -29 -107 -45 -190
-5 -27 -17 -84 -26 -125 -22 -107 -45 -252 -63 -409 -11 -89 -22 -121 -42
-121 -5 0 -9 5 -9 12 0 18 -217 331 -249 358 -4 3 -31 34 -61 70 -30 36 -71
80 -90 98 -19 19 -69 66 -110 106 -99 95 -181 158 -315 243 -148 94 -334 182
-450 213 -16 5 -57 16 -90 25 -149 41 -246 54 -455 61 -125 4 -182 1 -295 -16
-221 -33 -290 -47 -355 -69 -14 -5 -52 -17 -85 -27 -33 -9 -67 -21 -75 -25 -8
-4 -35 -13 -60 -20 -25 -7 -56 -18 -70 -25 -14 -7 -43 -20 -65 -29 -41 -18
-159 -76 -198 -98 -12 -7 -73 -48 -137 -91 -90 -62 -153 -118 -294 -260 -154
-157 -235 -244 -309 -335 -75 -92 -216 -340 -268 -468 -37 -93 -58 -149 -68
-183 -6 -19 -18 -57 -27 -85 -26 -84 -46 -158 -54 -205 -4 -25 -13 -72 -19
-105 -25 -129 -42 -245 -54 -360 -15 -154 -15 -885 1 -946 6 -24 13 -90 16
-146 4 -86 3 -103 -9 -103 -8 0 -15 4 -15 9 0 11 -46 89 -176 301 -135 218
-241 375 -322 475 -4 6 -33 42 -63 80 -71 88 -179 197 -244 245 -238 176 -436
105 -464 -165 -5 -49 -9 -60 -26 -63 -33 -6 -84 -51 -91 -80 -4 -15 -11 -32
-16 -39 -16 -21 -11 -329 6 -413 9 -41 21 -100 27 -130 6 -30 17 -80 25 -110
8 -30 19 -73 25 -95 25 -96 85 -292 121 -395 16 -47 32 -97 35 -113 3 -15 9
-30 14 -33 5 -3 9 -14 9 -24 0 -11 7 -36 16 -57 17 -38 19 -45 43 -113 7 -19
24 -66 38 -103 14 -38 23 -71 20 -74 -3 -2 -56 31 -119 75 -224 157 -388 246
-558 303 -130 44 -171 50 -350 56 -162 5 -165 4 -310 -45 -141 -47 -323 -182
-417 -309 -15 -21 -42 -56 -60 -77 -18 -22 -33 -43 -33 -48 0 -5 -18 -37 -40
-72 -22 -35 -53 -92 -68 -127 -43 -97 -102 -299 -102 -350 0 -12 -11 -53 -24
-92 -44 -131 -48 -169 -43 -392 2 -115 8 -221 12 -234 l8 -24 -94 9 c-188 17
-410 8 -554 -22 -111 -24 -276 -70 -330 -94 -136 -58 -361 -185 -403 -227 -8
-7 -23 -18 -34 -24 -30 -16 -81 -61 -178 -159 -104 -104 -114 -116 -215 -260
-91 -130 -118 -174 -174 -287 -36 -72 -48 -99 -85 -185 -37 -86 -95 -283 -115
-388 -17 -92 -31 -243 -25 -280 3 -19 7 -134 9 -255 2 -121 9 -245 15 -275 6
-30 14 -72 17 -93 3 -20 9 -40 14 -43 5 -3 9 -13 9 -22 0 -9 7 -30 15 -46 8
-15 15 -33 15 -38 0 -18 54 -123 98 -193 73 -115 167 -229 259 -315 84 -78 86
-80 68 -100 -10 -11 -22 -20 -28 -20 -18 0 -88 -62 -117 -105 -46 -66 -60
-119 -60 -225 0 -88 20 -183 43 -207 4 -3 7 -59 7 -123 0 -101 4 -127 26 -191
61 -171 252 -367 499 -512 39 -23 72 -44 75 -47 3 -3 22 -14 43 -24 21 -11 34
-23 30 -27 -5 -3 -55 -16 -113 -29 -158 -33 -170 -36 -235 -59 -220 -82 -424
-232 -532 -391 -51 -75 -133 -239 -133 -265 0 -12 -4 -25 -9 -30 -5 -6 -14
-35 -21 -65 -6 -30 -18 -84 -26 -120 -30 -137 -8 -339 52 -477 8 -17 14 -34
14 -37 0 -3 8 -25 18 -49 11 -23 27 -76 36 -117 20 -86 29 -114 62 -187 13
-28 24 -54 24 -58 0 -16 131 -211 195 -290 76 -94 245 -261 334 -330 50 -39
61 -58 41 -70 -10 -6 -120 -150 -130 -170 -3 -5 -26 -41 -51 -80 -112 -172
-233 -440 -289 -645 -7 -25 -18 -65 -25 -90 -12 -43 -24 -102 -44 -212 -61
-335 -43 -833 43 -1188 9 -36 20 -85 25 -110 5 -25 23 -88 40 -140 17 -52 36
-111 42 -130 6 -19 17 -48 24 -65 39 -93 47 -112 54 -130 30 -76 169 -335 191
-355 3 -3 18 -25 34 -49 16 -24 47 -68 70 -97 22 -28 56 -76 74 -105 46 -77
54 -89 82 -129 64 -92 206 -244 305 -326 63 -52 190 -144 199 -144 3 0 30 -16
60 -35 30 -19 57 -35 60 -35 2 0 33 -13 68 -29 134 -62 273 -105 422 -132 33
-5 62 -12 66 -14 3 -2 84 -11 180 -20 149 -15 200 -15 335 -6 181 13 292 25
415 44 47 8 87 12 89 11 6 -5 -24 -48 -80 -110 -108 -123 -172 -248 -198 -389
-35 -189 113 -435 261 -435 18 0 31 -6 34 -17 23 -73 95 -181 142 -214 20 -14
63 -31 94 -39 68 -15 150 -3 236 36 29 13 55 24 58 24 3 0 43 25 90 56 81 53
177 129 254 201 51 48 60 44 61 -29 2 -119 17 -129 18 -12 l1 111 71 74 c39
41 91 97 116 124 99 108 130 141 148 155 17 14 18 13 11 -5 -33 -88 -65 -306
-72 -505 -16 -403 101 -769 343 -1068 24 -30 40 -58 37 -63 -12 -20 -242 186
-313 281 -14 19 -32 41 -38 48 -7 7 -13 17 -13 21 0 4 -8 16 -17 27 -23 24
-67 93 -77 119 -6 14 -10 16 -13 7 -6 -16 11 -52 44 -98 13 -17 23 -36 23 -42
0 -7 3 -12 8 -12 4 0 18 -17 32 -37 14 -20 39 -51 55 -69 17 -18 37 -41 46
-51 30 -34 154 -148 194 -178 22 -16 42 -33 43 -37 2 -4 8 -8 13 -8 6 0 15 -5
22 -11 7 -6 44 -32 83 -57 39 -26 116 -79 170 -118 121 -88 141 -100 274 -165
108 -52 114 -55 190 -84 25 -9 53 -21 62 -26 10 -5 28 -9 41 -9 13 0 27 -3 31
-7 8 -8 71 -26 171 -48 140 -30 446 -16 550 25 130 52 165 67 197 87 21 13 40
23 44 23 3 0 35 21 72 48 88 62 249 217 324 311 33 42 65 83 72 92 7 8 21 30
32 47 10 18 22 32 26 32 4 0 8 4 8 9 0 13 53 100 61 101 3 0 11 -10 17 -22 9
-20 11 -16 11 30 1 37 8 64 24 90 13 20 48 89 79 152 51 105 70 147 100 220 6
14 16 39 23 55 39 91 77 195 95 255 32 108 37 48 9 -125 -5 -33 -13 -104 -18
-157 -5 -54 -12 -102 -16 -108 -3 -5 -6 -119 -6 -252 0 -219 2 -251 22 -328
12 -47 23 -93 24 -103 1 -10 6 -22 11 -25 6 -4 21 -24 34 -46 13 -21 44 -51
69 -67 39 -25 55 -29 118 -29 55 0 84 5 114 20 52 27 113 83 152 139 17 25 34
48 38 51 7 5 81 150 119 234 22 49 82 210 103 276 6 19 17 39 25 43 7 5 10 17
7 28 -4 10 -2 34 4 51 6 18 18 59 27 91 8 31 19 55 23 52 4 -2 22 -34 40 -70
39 -79 132 -198 190 -244 23 -18 40 -38 38 -45 -3 -10 62 -46 84 -46 5 0 32
-11 61 -24 174 -80 340 -114 563 -118 147 -2 154 -1 268 58 16 8 37 14 47 14
10 0 22 5 25 10 3 6 15 10 27 10 11 0 41 7 67 15 67 21 116 32 201 46 63 11
117 34 140 60 3 3 12 8 21 11 64 24 340 266 475 418 62 69 184 234 256 345 35
55 72 106 81 114 9 7 17 19 17 26 0 7 18 46 40 86 73 136 222 444 249 519 8
19 20 49 27 67 8 17 14 36 14 42 0 6 5 11 10 11 6 0 10 14 10 30 0 17 5 30 11
30 11 0 10 -9 -10 -115 -5 -27 -14 -77 -19 -110 -6 -33 -15 -82 -20 -110 -14
-69 -30 -221 -43 -410 -20 -295 31 -616 125 -795 67 -128 146 -215 245 -270
35 -19 70 -43 79 -52 9 -10 22 -18 29 -18 20 0 16 -14 -21 -66 -44 -64 -147
-269 -301 -599 -13 -27 -33 -70 -44 -94 -12 -25 -21 -48 -21 -53 0 -4 -16 -40
-35 -79 -19 -40 -35 -76 -35 -80 0 -5 -12 -34 -26 -66 -14 -32 -30 -67 -34
-78 -4 -11 -15 -36 -24 -57 -9 -20 -16 -39 -16 -42 0 -3 -8 -25 -19 -49 -10
-23 -24 -58 -31 -77 -18 -48 -40 -101 -51 -122 -5 -10 -9 -26 -9 -36 0 -10 -4
-22 -9 -27 -4 -6 -16 -35 -27 -65 -10 -30 -22 -59 -26 -65 -4 -5 -8 -18 -8
-30 0 -12 -4 -25 -9 -30 -5 -6 -21 -48 -36 -95 -15 -47 -31 -94 -35 -105 -4
-11 -14 -38 -22 -60 -9 -22 -21 -58 -27 -80 -7 -22 -16 -49 -20 -60 -5 -11
-16 -47 -26 -80 -9 -33 -21 -69 -25 -80 -4 -11 -13 -40 -20 -65 -7 -25 -24
-77 -37 -116 -12 -39 -23 -80 -23 -92 0 -11 -4 -23 -9 -26 -5 -3 -11 -20 -14
-38 -3 -18 -12 -58 -22 -88 -16 -52 -22 -75 -44 -167 -5 -21 -16 -63 -25 -93
-9 -30 -19 -74 -23 -98 -3 -23 -10 -45 -14 -48 -5 -3 -9 -17 -9 -31 0 -15 -4
-40 -9 -57 -12 -41 -31 -120 -43 -176 -19 -93 -29 -146 -38 -195 -4 -27 -16
-84 -25 -125 -17 -72 -26 -124 -44 -255 -5 -33 -16 -98 -26 -145 -28 -138 -53
-368 -85 -775 -6 -71 -13 -328 -16 -569 -5 -355 -3 -471 10 -610 9 -94 18
-198 20 -231 11 -128 25 -241 35 -275 6 -19 11 -60 11 -90 0 -38 6 -64 20 -85
12 -19 20 -47 20 -74 0 -25 4 -58 9 -75 11 -36 30 -122 41 -186 5 -25 16 -76
25 -115 9 -38 21 -86 25 -105 5 -19 16 -62 25 -95 9 -33 20 -74 24 -91 22 -84
26 -87 156 -115 66 -14 154 -32 195 -38 41 -7 93 -16 115 -21 22 -5 76 -14
120 -20 44 -7 107 -20 140 -30 78 -23 187 -39 485 -70 329 -35 437 -43 733
-59 115 -6 213 -14 218 -17 15 -9 1244 -4 1414 7 88 5 235 13 327 18 92 5 171
12 177 15 5 4 69 11 143 16 73 6 187 17 253 25 66 8 158 19 205 24 47 5 92 12
100 15 8 3 53 11 100 16 197 24 230 29 240 35 5 3 40 10 78 15 89 13 160 25
257 44 44 9 100 19 125 22 25 3 52 8 60 12 16 6 107 27 180 42 25 5 74 16 110
25 36 9 83 20 105 25 22 5 69 16 105 25 36 9 81 20 100 25 19 4 62 16 95 25
33 10 71 19 85 22 14 2 34 8 45 13 11 5 31 11 45 13 14 3 39 10 55 15 17 6 50
16 75 23 25 7 77 23 116 36 39 12 78 23 86 23 9 0 29 7 44 15 16 8 37 15 47
15 9 0 25 4 35 10 9 5 71 27 137 49 133 44 180 60 210 71 11 5 36 14 55 20 19
7 49 19 65 25 17 7 75 29 130 49 55 21 114 43 130 50 17 8 49 21 72 30 23 8
64 25 90 37 26 12 64 28 83 36 19 8 43 18 52 23 10 6 23 10 29 10 6 0 17 6 24
13 32 28 43 34 100 61 33 16 98 46 145 68 47 22 167 81 268 131 148 74 184 95
189 115 8 34 -6 708 -18 862 -6 69 -14 184 -19 255 -12 192 -29 383 -40 446
-6 30 -10 77 -10 105 -1 27 -5 69 -10 94 -6 25 -14 88 -20 140 -15 146 -33
273 -60 435 -27 159 -40 238 -51 305 -6 41 -16 93 -21 115 -5 22 -14 65 -19
95 -5 30 -13 75 -18 100 -24 122 -52 249 -61 285 -6 22 -15 55 -19 73 -5 18
-5 32 0 32 12 0 11 57 -1 65 -5 3 -10 17 -10 30 0 13 -4 27 -10 30 -5 3 -10
18 -10 33 0 15 -6 47 -14 72 -8 25 -19 63 -24 85 -6 22 -17 67 -26 100 -9 33
-21 78 -27 100 -15 58 -56 198 -85 287 -13 43 -24 86 -24 97 0 11 -4 23 -10
26 -5 3 -10 15 -10 25 0 11 -6 34 -14 52 -8 18 -26 74 -41 123 -15 50 -31 98
-36 107 -5 10 -9 24 -9 32 0 7 -7 27 -15 42 -8 16 -15 36 -15 44 0 9 -4 20 -8
25 -4 6 -16 35 -26 65 -11 30 -23 59 -27 65 -5 5 -9 17 -9 27 0 10 -4 26 -9
36 -5 9 -22 49 -36 87 -15 39 -33 84 -40 100 -19 46 -37 87 -47 115 -6 14 -16
39 -23 55 -7 17 -17 41 -23 55 -5 14 -21 50 -35 80 -14 30 -36 80 -50 110 -35
77 -231 471 -276 555 -188 352 -523 860 -719 1094 l-46 53 -56 -5 c-31 -2 -81
-17 -112 -31 -30 -14 -59 -26 -64 -26 -12 0 -47 -15 -128 -55 l-61 -30 -6 -73
c-4 -40 -10 -80 -14 -90 -3 -9 -8 -46 -11 -82 -3 -36 -8 -72 -11 -80 -3 -8 -9
-46 -14 -85 -8 -65 -14 -100 -38 -237 -5 -29 -17 -80 -26 -113 -9 -33 -21 -79
-26 -102 -5 -24 -13 -62 -18 -85 -5 -24 -17 -68 -26 -98 -26 -86 -36 -123 -41
-150 -3 -14 -9 -34 -14 -45 -5 -11 -16 -45 -25 -75 -10 -30 -21 -63 -26 -72
-5 -10 -9 -26 -9 -36 0 -10 -4 -22 -8 -27 -4 -6 -16 -35 -26 -65 -11 -30 -23
-59 -27 -65 -5 -5 -9 -18 -9 -30 0 -12 -4 -25 -9 -30 -4 -6 -25 -55 -46 -110
-34 -90 -54 -136 -130 -300 -93 -203 -233 -472 -330 -637 -5 -9 -25 -43 -44
-75 -19 -32 -73 -116 -120 -188 -47 -71 -88 -134 -90 -139 -7 -16 -172 -249
-235 -330 -34 -44 -86 -112 -116 -152 -154 -201 -506 -591 -530 -585 -8 1 -53
28 -100 59 -47 32 -89 59 -95 61 -46 18 -386 280 -555 427 -272 236 -611 613
-822 914 -73 104 -148 218 -148 224 0 3 -15 27 -33 53 -19 27 -37 55 -40 63
-4 8 -13 24 -19 34 -48 74 -86 145 -172 321 -93 191 -108 221 -136 290 -7 17
-18 44 -25 60 -16 37 -32 78 -44 108 -4 12 -16 39 -25 60 -9 21 -16 44 -16 52
0 9 -4 23 -9 33 -21 42 -41 94 -41 107 0 9 -4 23 -9 33 -5 9 -17 44 -26 77 -9
33 -20 71 -25 85 -4 14 -12 43 -18 65 -6 22 -18 63 -26 92 -9 28 -16 62 -16
75 -1 43 -9 48 -155 108 -44 18 -93 39 -109 46 -16 8 -37 14 -46 14 -9 0 -25
7 -36 15 -17 13 -15 14 33 15 145 1 334 71 498 187 119 83 115 79 115 116 0
18 5 52 11 76 17 75 10 786 -8 814 -5 7 -11 57 -15 112 -11 156 -25 277 -37
308 -6 16 -11 52 -11 82 0 30 -4 57 -10 60 -5 3 -10 26 -10 50 0 24 -7 70 -15
102 -8 31 -15 74 -15 95 0 20 -4 39 -9 42 -4 3 -11 29 -15 58 -8 68 -29 159
-39 176 -5 6 -19 12 -32 12 -13 0 -27 5 -30 10 -3 6 -16 10 -29 10 -12 0 -42
6 -67 14 -24 7 -64 19 -89 26 -67 18 -206 66 -265 90 -11 4 -39 15 -62 24
-102 38 -402 183 -481 233 -29 18 -55 33 -58 33 -3 0 -20 11 -38 25 -18 14
-38 25 -44 25 -6 0 -12 3 -14 8 -1 4 -37 29 -78 56 -79 52 -244 172 -270 197
-8 8 -49 41 -90 74 -79 63 -393 369 -447 435 -41 53 -110 135 -151 181 -30 34
-36 37 -55 26 -12 -7 -24 -14 -27 -17 -15 -15 -71 -40 -89 -40 -12 0 -21 -4
-21 -8 0 -8 -141 -33 -185 -33 -60 1 -214 19 -238 29 -16 7 -39 12 -53 12 -13
0 -24 5 -24 10 0 6 -15 10 -34 10 -19 0 -37 4 -40 9 -3 5 -18 12 -32 15 -73
19 -400 188 -434 226 -3 3 -18 12 -34 20 -16 8 -44 30 -61 48 -18 17 -36 32
-41 32 -5 0 -29 18 -54 41 -89 81 -190 179 -190 184 0 3 -17 23 -37 44 -21 22
-47 51 -58 67 -11 15 -25 32 -30 38 -14 15 -57 84 -80 129 -11 20 -23 37 -27
37 -5 0 -8 7 -8 15 0 9 -11 33 -25 55 -14 22 -25 46 -25 54 0 8 -4 18 -10 21
-5 3 -10 16 -10 28 0 12 -7 31 -15 41 -8 11 -15 32 -15 48 0 15 -4 28 -10 28
-5 0 -10 17 -10 38 0 21 -7 62 -16 92 -11 39 -14 77 -10 144 7 121 20 217 34
243 7 12 12 35 12 52 0 16 5 33 10 36 6 3 10 19 10 36 0 16 5 29 10 29 6 0 10
10 10 23 0 13 7 32 15 43 8 10 15 27 15 37 0 9 5 17 10 17 6 0 10 7 10 15 0
13 35 72 60 102 5 7 10 15 10 18 0 21 174 166 184 153 6 -7 28 -96 35 -140 11
-74 23 -82 109 -75 40 3 79 10 85 15 7 5 30 12 52 15 22 3 69 13 105 22 109
28 139 30 146 9 9 -29 25 -67 35 -84 5 -8 12 -22 15 -30 17 -44 69 -136 80
-143 8 -4 14 -12 14 -18 0 -31 205 -271 324 -379 83 -75 239 -194 311 -235 84
-49 258 -135 272 -135 7 0 21 -4 31 -9 45 -23 161 -61 188 -61 11 0 24 -4 30
-9 5 -5 27 -11 49 -14 22 -3 90 -13 150 -22 61 -9 146 -19 190 -22 125 -7 413
21 525 51 30 8 82 22 115 30 33 9 78 23 100 32 22 9 51 21 65 26 37 15 93 39
112 49 89 45 156 83 169 95 8 8 19 14 23 14 22 0 195 138 295 235 128 124 234
251 307 370 78 125 194 375 194 417 0 9 4 19 9 22 5 3 11 20 14 38 15 86 24
125 32 138 18 29 27 148 31 410 2 146 8 276 13 290 5 14 15 45 22 70 41 137
156 300 213 300 14 0 28 -4 31 -10 3 -5 13 -10 21 -10 29 0 144 -92 216 -173
86 -97 96 -113 103 -169 3 -24 10 -59 15 -78 23 -91 42 -157 51 -172 5 -10 9
-25 9 -33 0 -8 4 -23 9 -33 4 -9 16 -35 26 -57 9 -22 21 -48 26 -57 5 -10 9
-24 9 -32 0 -7 7 -19 15 -26 8 -7 15 -19 15 -27 0 -8 16 -39 35 -69 19 -30 35
-57 35 -60 0 -3 39 -59 86 -125 84 -118 265 -307 363 -381 80 -60 162 -118
166 -118 3 0 28 -15 57 -33 49 -31 187 -100 233 -117 11 -4 38 -15 60 -23 22
-9 58 -21 80 -28 22 -6 50 -15 63 -20 13 -5 34 -9 47 -9 13 0 27 -4 30 -10 3
-5 22 -10 40 -10 19 0 54 -6 77 -14 54 -17 229 -31 368 -30 126 2 386 37 465
62 17 5 50 15 75 22 100 28 253 92 365 155 28 15 59 33 70 39 89 49 295 217
390 317 108 113 269 330 291 392 3 9 10 17 14 17 4 0 13 15 20 33 14 35 57
132 70 157 4 9 11 30 14 48 4 17 12 34 17 37 5 4 9 19 9 35 0 16 5 32 10 35 6
3 10 17 10 31 0 13 4 32 9 42 8 16 23 81 44 202 5 30 11 156 12 280 l3 225 23
3 c13 2 33 7 44 12 11 5 40 11 65 14 25 3 77 13 115 21 39 9 93 20 120 25 28
5 64 12 80 15 27 5 37 -1 97 -62 102 -104 118 -121 118 -130 0 -4 18 -28 40
-52 22 -25 40 -50 40 -58 0 -7 4 -13 9 -13 5 0 12 -11 15 -25 4 -14 11 -25 16
-25 6 0 10 -8 10 -18 0 -10 4 -22 9 -27 4 -6 16 -32 26 -60 10 -27 22 -54 26
-60 3 -5 9 -26 12 -45 3 -19 11 -60 17 -90 13 -69 13 -420 0 -455 -5 -14 -10
-42 -10 -61 0 -19 -7 -51 -15 -71 -8 -19 -15 -46 -15 -59 0 -12 -4 -26 -10
-29 -5 -3 -10 -22 -10 -41 0 -19 -4 -34 -8 -34 -4 0 -16 -26 -27 -57 -10 -32
-22 -65 -26 -73 -4 -8 -12 -28 -19 -45 -7 -16 -16 -37 -21 -45 -5 -8 -12 -22
-15 -30 -4 -8 -11 -27 -18 -42 -6 -16 -14 -28 -18 -28 -5 0 -8 -8 -8 -19 0
-10 -7 -24 -15 -31 -8 -7 -15 -17 -15 -22 0 -12 -140 -224 -170 -258 -12 -14
-39 -45 -59 -69 -58 -72 -174 -179 -259 -241 -55 -39 -172 -100 -194 -100 -10
0 -18 -4 -18 -9 0 -4 -24 -11 -52 -14 -29 -4 -54 -11 -56 -17 -5 -13 -122 -13
-122 0 0 6 -15 10 -33 10 -18 0 -42 7 -53 15 -10 8 -26 15 -36 15 -9 0 -18 3
-20 8 -1 4 -17 15 -35 25 -32 17 -32 17 -47 -5 -7 -13 -17 -34 -20 -48 -15
-59 -29 -106 -36 -125 -10 -29 -28 -79 -60 -175 -31 -94 -49 -139 -120 -300
-85 -192 -221 -450 -277 -526 -13 -17 -23 -34 -23 -38 0 -8 -89 -138 -166
-243 -175 -238 -423 -499 -623 -659 -71 -56 -72 -57 -65 -136 4 -40 11 -81 15
-90 5 -9 9 -36 9 -60 1 -24 7 -61 15 -83 8 -22 15 -49 15 -60 0 -11 7 -54 16
-95 8 -41 20 -100 25 -130 6 -30 17 -81 25 -112 8 -32 14 -71 14 -87 0 -17 5
-33 10 -36 6 -3 10 -20 10 -36 0 -41 26 -99 44 -99 8 0 28 -11 44 -25 17 -14
32 -25 35 -25 3 0 49 -27 102 -60 53 -33 99 -60 102 -60 3 0 17 -8 31 -18 55
-38 358 -195 472 -244 130 -56 390 -145 490 -167 30 -7 73 -16 95 -21 22 -5
94 -17 160 -26 127 -18 326 -15 415 4 242 54 237 53 293 95 29 23 66 51 81 62
16 11 49 36 75 56 82 64 204 144 274 179 39 19 78 47 90 65 12 16 35 44 52 60
54 53 134 156 199 254 90 137 108 173 197 386 70 170 121 492 118 751 -1 83 2
157 6 163 4 7 0 20 -8 29 -8 9 -17 44 -20 77 -6 69 -38 229 -68 347 -7 27 -10
51 -6 54 3 3 88 -77 189 -178 247 -249 409 -387 658 -560 134 -92 405 -238
445 -238 7 0 16 -4 19 -9 3 -5 18 -11 33 -14 16 -3 53 -13 83 -22 96 -30 254
-44 350 -33 96 11 214 48 270 83 21 13 48 23 60 22 14 -1 30 9 44 27 11 15 41
51 66 79 147 167 228 307 273 467 31 109 37 152 37 244 0 64 4 96 12 98 8 3 4
12 -10 26 -11 11 -24 38 -27 59 -14 78 -61 195 -118 293 -53 92 -59 101 -84
128 -29 34 -48 71 -39 79 4 4 10 3 14 -3 15 -21 389 -274 406 -274 3 0 29 -15
58 -33 29 -18 71 -41 93 -51 22 -10 58 -27 79 -37 22 -11 46 -19 53 -19 28 0
83 -45 83 -67 0 -13 5 -23 10 -23 6 0 10 12 10 26 0 26 1 27 53 21 66 -8 116
0 147 23 21 16 24 26 23 78 -3 99 -77 238 -264 500 -80 111 -247 324 -296 377
-10 11 -35 41 -56 67 -21 26 -44 53 -51 60 -23 23 -46 64 -40 71 6 5 23 -1 64
-25 8 -4 22 -11 30 -14 8 -3 23 -10 32 -15 10 -5 26 -9 37 -9 11 0 21 -5 23
-11 2 -6 15 -9 28 -7 23 4 24 5 5 12 -11 4 -28 12 -37 17 -10 5 -26 9 -37 9
-11 0 -21 3 -23 8 -1 4 -19 14 -38 23 -19 9 -62 29 -95 45 -61 28 -75 40 -134
109 -30 35 -122 135 -316 343 -33 36 -89 95 -125 132 -76 78 -103 110 -97 116
2 2 55 -28 118 -67 63 -40 132 -82 154 -94 22 -13 65 -37 95 -54 51 -29 340
-172 385 -191 11 -4 43 -18 70 -30 28 -12 64 -28 80 -35 17 -7 64 -25 105 -40
41 -15 84 -30 95 -35 81 -32 266 -82 410 -110 55 -11 124 -25 153 -31 69 -14
460 -14 532 0 142 27 230 49 244 62 6 5 16 9 23 9 19 0 121 49 193 94 155 96
276 214 378 368 31 48 60 87 65 87 10 1 9 -26 -2 -47 -6 -9 -22 -44 -36 -77
-27 -61 -64 -134 -96 -191 -64 -116 -224 -299 -324 -372 -27 -20 -58 -44 -67
-52 -16 -14 -162 -90 -213 -110 -69 -28 -108 -40 -125 -40 -11 0 -20 -4 -20
-10 0 -5 -17 -10 -39 -10 -21 0 -58 -7 -81 -15 -33 -12 -92 -15 -258 -15 -154
0 -213 -3 -205 -11 14 -14 451 -8 461 6 4 6 30 12 57 13 28 2 54 7 59 13 6 5
22 9 38 9 15 0 44 7 65 16 21 9 47 20 58 24 43 16 140 65 143 72 2 4 8 8 13 8
18 0 167 111 233 175 68 65 206 243 206 265 0 6 3 10 8 10 4 0 12 10 18 23 6
12 22 45 37 72 14 28 37 77 52 110 14 33 30 68 35 77 6 10 10 26 10 36 0 10 4
22 9 27 4 6 16 35 26 65 9 30 21 63 26 72 5 10 9 25 9 35 0 17 4 33 41 143 12
36 25 79 30 95 4 17 15 55 24 85 68 225 96 553 67 795 -9 79 -18 126 -52 265
-13 55 -35 118 -43 126 -4 4 -7 15 -7 24 0 9 -6 30 -14 46 -8 16 -31 65 -52
109 -36 78 -136 244 -178 296 -12 15 -30 39 -41 55 -76 106 -269 301 -417 421
l-108 88 58 3 c31 2 107 -1 168 -7 132 -13 502 -13 669 0 238 18 326 31 421
60 17 5 40 9 52 9 12 0 38 7 59 16 21 9 47 20 58 24 62 22 157 73 202 109 60
47 123 129 141 182 14 41 16 221 3 247 -32 63 -32 66 -10 112 19 37 23 62 22
145 0 89 -3 106 -28 155 -25 49 -139 179 -157 180 -4 0 -31 15 -60 33 -66 41
-211 107 -236 107 -10 0 -22 4 -27 8 -6 5 -39 17 -75 26 -36 10 -75 22 -88 27
-13 5 -33 9 -44 9 -12 0 -35 4 -52 9 -17 6 -69 17 -116 26 -47 9 -107 20 -133
26 -27 5 -66 9 -88 9 -40 0 -79 14 -79 28 0 4 17 16 38 27 200 103 445 315
576 498 31 42 56 79 56 82 0 3 15 28 33 57 30 48 50 87 92 183 29 66 76 222
94 315 6 30 16 75 21 100 5 25 15 125 21 222 16 231 3 425 -47 733 -36 227
-74 370 -162 625 -11 30 -31 93 -46 140 -15 47 -34 103 -43 125 -8 22 -19 49
-23 60 -25 66 -147 303 -185 360 -25 37 -45 71 -45 75 0 5 -4 10 -8 12 -5 2
-27 28 -49 58 -67 90 -231 244 -335 314 -240 161 -469 237 -758 252 -58 2
-115 7 -128 10 -28 6 -23 16 39 81 53 56 151 179 167 210 7 12 18 28 24 35 7
8 18 23 24 33 6 11 22 41 36 66 118 212 101 419 -44 522 -21 15 -44 27 -52 27
-18 0 -26 22 -26 75 0 57 -22 107 -71 160 -56 60 -108 79 -204 73 -42 -3 -81
-10 -88 -17 -6 -6 -19 -11 -28 -11 -47 0 -303 -168 -413 -271 -17 -16 -34 -29
-38 -29 -11 0 -10 28 1 34 5 3 11 18 14 33 2 16 18 66 34 113 17 47 43 126 58
175 15 50 30 97 32 105 3 8 9 31 13 50 5 19 20 80 35 135 27 100 33 128 54
240 41 213 54 324 67 570 8 153 -13 321 -63 510 -9 33 -20 64 -25 70 -4 5 -8
15 -8 22 0 27 -56 131 -111 208 -71 97 -102 132 -154 170 -61 46 -65 49 -83
66 -9 9 -37 42 -62 74 -155 199 -475 335 -790 335 -135 0 -276 -20 -390 -55
-30 -9 -65 -19 -78 -22 -12 -3 -25 -9 -28 -14 -3 -5 -12 -9 -20 -9 -19 0 -201
-87 -285 -137 -227 -134 -506 -371 -741 -631 -59 -66 -82 -70 -59 -10 23 59
114 420 141 558 55 278 62 345 57 519 -5 201 -21 253 -92 307 -31 23 -45 27
-104 26 -38 0 -78 -5 -90 -11 -18 -10 -22 -8 -36 25 -8 20 -15 43 -15 51 0 8
-12 32 -27 53 -36 50 -92 68 -150 49 -40 -13 -113 -51 -141 -74 -78 -63 -106
-89 -163 -150 -131 -138 -287 -337 -441 -560 -54 -77 -102 -146 -109 -153 -6
-7 -16 -23 -23 -35 -33 -60 -138 -212 -151 -220 -17 -9 -17 -11 6 83 6 25 15
69 20 98 5 28 13 78 19 110 80 465 80 874 -2 1177 -61 228 -172 427 -323 578
-104 105 -209 179 -335 240 -101 48 -297 117 -334 117 -12 0 -49 10 -81 21
-66 24 -84 29 -200 57 -334 81 -784 76 -1110 -13 -175 -48 -219 -64 -390 -146
-154 -73 -367 -209 -475 -304 -268 -235 -455 -456 -650 -768 -47 -75 -88 -137
-91 -137 -4 0 -9 44 -13 98 -12 190 -33 335 -67 467 -21 81 -43 150 -51 159
-4 6 -8 17 -8 25 0 8 -25 65 -55 127 -132 270 -327 450 -588 544 -26 9 -50 20
-54 23 -3 4 -15 7 -26 7 -12 0 -34 4 -51 10 -112 35 -322 48 -536 33z m543
-160 c21 -3 40 -10 43 -14 3 -5 13 -9 22 -9 34 0 200 -92 279 -154 76 -60 127
-117 196 -220 35 -51 107 -198 107 -217 0 -8 6 -23 14 -34 7 -11 16 -31 19
-45 3 -14 13 -52 22 -85 21 -71 34 -135 41 -190 3 -22 12 -89 20 -148 8 -60
14 -188 14 -292 0 -156 -3 -190 -19 -227 -21 -49 -50 -114 -92 -206 -16 -35
-29 -67 -29 -72 0 -5 -12 -37 -26 -72 -39 -95 -40 -96 -70 -195 -16 -51 -33
-93 -38 -93 -9 0 -4 65 14 190 49 346 49 876 -1 1155 -36 204 -118 426 -208
570 -38 60 -124 166 -163 201 -45 41 -173 134 -184 134 -5 0 -15 10 -23 21
-12 20 -11 21 6 14 10 -4 35 -9 56 -12z m-2679 -314 c81 -38 153 -127 220
-271 39 -86 60 -138 77 -193 7 -22 18 -58 24 -80 25 -79 56 -206 74 -305 5
-30 14 -79 20 -108 15 -72 14 -101 -5 -169 -9 -32 -20 -78 -24 -103 -9 -50
-44 -227 -60 -303 -6 -27 -10 -65 -10 -85 0 -21 -4 -32 -9 -26 -9 10 -28 116
-42 239 -5 44 -16 121 -24 170 -9 50 -19 113 -24 140 -11 65 -28 150 -40 200
-6 22 -17 71 -26 109 -9 38 -20 78 -25 90 -4 11 -13 41 -20 66 -21 77 -44 145
-52 155 -4 5 -8 15 -8 23 0 7 -23 61 -51 120 -54 112 -116 207 -168 256 -17
17 -31 35 -31 42 0 18 80 54 123 54 20 0 57 -9 81 -21z m7164 -163 c56 -54
105 -115 148 -183 35 -57 64 -106 64 -111 0 -5 11 -32 25 -60 14 -29 25 -56
25 -62 0 -6 4 -18 9 -28 27 -54 53 -172 77 -348 27 -206 6 -622 -46 -864 -5
-25 -14 -72 -20 -105 -20 -104 -54 -255 -70 -305 -4 -14 -12 -43 -18 -65 -44
-167 -69 -242 -94 -285 -11 -19 -29 -48 -38 -65 -10 -16 -70 -119 -134 -228
-63 -108 -126 -216 -139 -240 -13 -23 -51 -89 -83 -147 -33 -58 -68 -122 -79
-142 -11 -21 -23 -38 -27 -38 -5 0 -8 -9 -8 -20 0 -11 -4 -20 -9 -20 -5 0 -12
-10 -16 -22 -4 -16 -8 -19 -12 -10 -5 13 2 33 28 84 5 10 9 26 9 36 0 10 4 22
8 27 7 8 37 78 72 170 4 11 14 38 23 60 8 22 25 67 37 100 12 33 28 76 35 95
8 19 24 67 36 105 12 39 28 84 35 102 8 17 14 38 14 46 0 9 5 19 10 22 6 3 10
17 10 30 0 13 4 34 9 47 22 52 65 203 106 368 14 58 30 119 35 136 6 17 10 41
10 54 0 13 4 37 9 54 28 92 56 262 83 501 19 163 16 575 -5 705 -43 276 -112
466 -234 642 -29 42 -53 81 -53 87 0 21 84 -41 168 -123z m-9833 -367 c118
-17 259 -50 297 -70 10 -5 27 -9 37 -9 11 0 23 -4 26 -10 3 -5 13 -10 20 -10
21 0 123 -46 210 -95 28 -15 59 -33 70 -39 45 -25 182 -122 258 -183 233 -186
496 -514 663 -828 24 -45 26 -55 20 -125 -3 -41 -9 -119 -13 -173 -4 -65 -9
-97 -17 -94 -6 2 -36 52 -67 113 -65 129 -115 219 -140 256 -11 14 -19 28 -19
31 0 6 -140 215 -163 242 -8 11 -44 56 -79 100 -137 173 -375 395 -545 508
-115 76 -326 187 -356 187 -7 0 -17 4 -22 8 -11 9 -143 53 -210 70 -165 42
-302 55 -505 49 -156 -6 -212 -10 -365 -32 -35 -4 -37 -4 -15 6 14 6 33 15 42
20 10 5 26 9 35 9 10 0 38 6 63 14 25 8 70 19 100 25 30 6 84 16 120 23 130
24 413 28 555 7z m11592 -687 c43 -37 53 -84 53 -252 0 -87 -4 -180 -9 -207
-6 -26 -15 -79 -21 -118 -11 -65 -39 -204 -62 -300 -5 -22 -13 -58 -18 -80 -4
-22 -20 -85 -35 -140 -15 -55 -30 -116 -35 -135 -5 -19 -13 -51 -19 -70 -19
-65 -38 -125 -43 -140 -3 -8 -11 -35 -18 -60 -19 -70 -24 -80 -81 -155 -54
-72 -259 -373 -259 -381 0 -8 -54 -88 -72 -106 -20 -20 -23 -11 -9 24 5 13 13
39 18 58 23 80 66 216 74 232 5 10 9 29 9 42 0 14 5 28 10 31 6 3 10 17 10 30
0 13 4 34 9 47 11 25 50 157 77 258 10 36 24 88 32 115 13 48 21 78 41 163 5
20 16 64 25 97 10 33 21 80 26 105 5 25 13 63 19 85 14 61 43 195 51 245 36
202 50 303 64 464 l11 129 45 18 c58 23 82 23 107 1z m2554 -1090 c65 -76 121
-194 161 -342 35 -127 40 -165 45 -365 6 -213 2 -266 -42 -555 -18 -118 -73
-358 -105 -460 -10 -30 -36 -120 -51 -175 -7 -22 -20 -65 -31 -95 -10 -30 -26
-77 -35 -105 -20 -63 -80 -229 -100 -275 -9 -19 -41 -62 -72 -95 -86 -93 -132
-145 -181 -205 -41 -49 -89 -105 -115 -134 -6 -6 -24 -30 -41 -53 -17 -24 -34
-40 -37 -36 -4 3 -3 11 2 17 4 6 11 20 14 31 3 11 26 67 51 125 64 145 67 153
77 172 5 10 9 22 9 28 0 5 11 33 24 62 13 29 34 82 46 118 12 36 28 79 35 95
16 37 71 192 92 260 9 28 25 79 38 115 26 75 29 86 80 270 59 211 110 452 134
630 28 205 34 290 34 468 -1 182 -9 265 -35 372 -6 25 -13 62 -16 83 -2 20 -8
40 -13 43 -11 7 -12 34 -1 34 5 0 20 -13 33 -28z m-5744 -622 c17 -99 44 -503
38 -560 -2 -25 -7 -118 -10 -207 -3 -90 -10 -198 -15 -240 -5 -43 -14 -116
-20 -163 -46 -366 -162 -784 -317 -1140 -26 -60 -161 -332 -191 -385 -42 -74
-162 -265 -191 -305 -14 -19 -30 -43 -36 -52 -13 -22 -179 -238 -202 -263 -10
-11 -45 -52 -78 -90 -80 -94 -291 -305 -390 -390 -44 -38 -82 -72 -85 -75 -3
-3 -48 -39 -100 -80 -268 -212 -576 -413 -842 -547 -68 -35 -77 -50 -36 -58
38 -8 52 -12 213 -60 109 -33 227 -73 280 -95 11 -4 74 -29 140 -56 66 -26
173 -74 237 -106 64 -32 119 -58 121 -58 3 0 40 -20 81 -45 42 -25 79 -45 82
-45 10 0 202 -126 309 -202 168 -120 177 -127 359 -287 89 -78 262 -261 328
-348 12 -15 25 -30 29 -33 4 -3 27 -34 51 -70 24 -36 74 -109 111 -162 37 -53
63 -99 59 -102 -4 -2 -27 0 -52 5 -123 26 -179 32 -350 36 -217 5 -271 -6
-321 -67 -26 -31 -29 -42 -29 -108 0 -100 30 -143 135 -199 47 -25 64 -30 160
-54 124 -31 306 -53 480 -58 18 -1 17 -3 -5 -18 -14 -9 -27 -20 -30 -23 -3 -3
-23 -19 -45 -36 -162 -119 -330 -269 -381 -339 -16 -22 -31 -42 -34 -45 -30
-28 -40 -65 -40 -143 0 -92 4 -99 69 -131 38 -18 188 -23 219 -7 9 5 32 15 50
22 31 11 151 84 162 98 28 35 191 181 185 166 -4 -11 -16 -65 -27 -120 -25
-124 -22 -356 6 -415 39 -86 82 -110 199 -110 81 0 92 2 127 28 21 15 49 47
61 70 25 51 38 45 50 -20 4 -24 12 -63 18 -88 6 -25 16 -70 22 -100 6 -30 17
-82 24 -115 35 -163 75 -472 94 -720 12 -149 20 -341 14 -308 -2 12 -11 27
-19 33 -8 7 -14 17 -14 22 0 23 -114 253 -167 335 -123 194 -339 420 -507 532
-11 8 -46 32 -78 53 -31 21 -63 38 -71 38 -9 0 -18 4 -21 9 -3 5 -24 18 -45
29 -22 12 -48 25 -58 31 -45 24 -135 61 -148 61 -7 0 -17 5 -20 10 -3 6 -17
10 -30 10 -13 0 -27 5 -30 10 -3 6 -19 10 -34 10 -15 0 -31 4 -36 9 -19 17
-159 45 -320 63 -190 21 -519 10 -598 -21 -16 -6 -43 -11 -62 -11 -19 0 -36
-4 -39 -9 -3 -5 -23 -11 -43 -14 -37 -4 -90 -21 -125 -38 -10 -5 -22 -9 -28
-9 -17 0 -210 -90 -295 -139 -50 -27 -171 -113 -270 -190 -77 -59 -218 -209
-299 -318 -92 -124 -131 -187 -183 -293 -73 -151 -83 -173 -83 -191 0 -10 -4
-20 -9 -23 -5 -3 -11 -18 -14 -33 -3 -16 -13 -53 -22 -83 -21 -69 -34 -129
-45 -205 -4 -33 -11 -70 -15 -82 -7 -21 -7 -21 -58 11 -29 17 -63 36 -77 42
-14 6 -38 18 -54 25 -38 18 -291 18 -308 1 -7 -7 -18 -12 -26 -12 -7 0 -28
-11 -46 -25 -18 -14 -38 -25 -44 -25 -6 0 -40 -32 -75 -71 l-66 -72 -40 84
c-99 204 -216 359 -402 535 -161 152 -280 234 -479 329 -52 26 -103 50 -112
56 -10 5 -25 9 -33 9 -8 0 -23 4 -33 10 -32 18 -168 60 -195 60 -14 0 -28 4
-31 9 -3 5 -32 11 -63 15 -32 3 -92 10 -133 15 -153 20 -488 7 -625 -23 -166
-36 -283 -71 -301 -89 -4 -4 -14 -7 -21 -7 -19 0 -209 -92 -256 -124 -21 -14
-40 -26 -43 -26 -10 0 -194 -135 -194 -142 0 -4 -7 -8 -16 -8 -19 0 -226 -205
-291 -290 -97 -126 -191 -289 -266 -460 -90 -206 -143 -499 -132 -730 4 -86 2
-140 -4 -150 -9 -12 -11 -10 -11 11 0 15 -7 46 -15 69 -8 23 -15 54 -15 68 0
14 -4 39 -9 56 -9 30 -28 134 -51 276 -62 397 -80 1065 -39 1440 24 211 69
529 89 625 5 22 16 76 25 120 9 44 20 96 25 115 5 19 23 91 41 160 17 69 35
139 39 155 58 211 76 264 85 242 4 -10 3 -35 -3 -55 -43 -150 -64 -440 -42
-582 24 -155 60 -224 146 -282 47 -31 65 -37 134 -43 94 -8 172 1 221 26 119
60 204 263 240 574 7 62 10 203 8 373 l-4 272 99 -97 c211 -206 253 -246 336
-313 30 -25 57 -48 60 -51 5 -5 115 -83 148 -104 153 -98 203 -118 300 -123
76 -4 86 -2 122 22 22 15 40 34 40 44 0 10 6 24 13 31 15 15 16 249 1 283 -51
116 -123 243 -166 294 -50 60 -133 151 -172 188 -69 66 -270 238 -286 244 -8
3 -17 9 -20 12 -3 4 -25 21 -49 38 l-44 32 49 1 c200 2 507 29 568 49 16 6 42
10 57 10 15 0 38 4 51 9 13 4 50 16 83 26 94 27 205 86 251 133 34 34 45 55
54 98 19 89 0 187 -44 229 -30 28 -96 76 -96 69 0 -4 -5 -3 -12 4 -7 7 -21 12
-33 12 -12 0 -25 4 -30 8 -11 10 -128 32 -167 32 -25 0 -25 -1 -31 -107 -6
-114 -22 -216 -38 -245 -5 -10 -9 -26 -10 -35 0 -10 -9 -31 -20 -48 -11 -16
-22 -37 -25 -45 -12 -34 -77 -64 -147 -68 -123 -8 -185 33 -222 146 -14 44
-16 77 -12 190 3 75 9 154 13 175 l6 37 -42 0 c-37 0 -95 -30 -120 -61 -13
-16 -125 -89 -137 -89 -7 0 -13 -4 -13 -9 0 -20 -201 -46 -242 -32 -63 22 -65
-19 -4 -94 87 -106 118 -230 85 -333 -30 -92 -62 -147 -119 -201 -65 -62 -146
-111 -184 -111 -14 0 -28 -4 -31 -10 -3 -5 -33 -10 -65 -10 -32 0 -62 5 -65
10 -3 6 -17 10 -30 10 -37 0 -124 50 -185 106 -54 51 -111 145 -126 209 -14
61 -3 198 17 211 5 3 9 12 9 20 0 20 68 110 116 155 44 40 135 89 167 89 11 0
35 5 53 12 33 12 119 0 170 -24 11 -5 34 -8 50 -6 l29 3 0 90 c0 89 1 91 42
152 70 102 238 262 387 368 15 11 48 36 73 55 43 33 44 35 22 42 -13 4 -82 12
-154 17 -71 6 -157 15 -190 20 -33 5 -81 13 -108 17 -26 3 -50 11 -53 15 -3 5
-13 9 -22 9 -9 0 -29 6 -44 14 -15 8 -40 17 -57 21 -28 6 -30 4 -40 -32 -20
-76 -62 -273 -76 -358 l-7 -40 -16 39 c-37 93 -220 447 -260 503 -12 17 -22
34 -22 37 0 10 -125 184 -168 235 -57 67 -150 140 -198 157 -51 18 -143 18
-185 0 -62 -26 -130 -124 -159 -231 -23 -80 -4 -348 29 -413 5 -9 17 -35 28
-57 23 -48 66 -125 90 -163 21 -31 25 -36 93 -119 29 -35 49 -63 45 -63 -8 0
-103 38 -127 51 -10 5 -22 9 -28 9 -13 0 -357 169 -419 205 -80 48 -236 148
-306 198 -61 44 -290 223 -321 252 -6 5 -53 48 -104 95 -193 176 -382 372
-540 560 -52 62 -99 118 -105 124 -5 6 -23 29 -40 51 -16 22 -37 49 -47 59
-10 11 -18 29 -18 40 0 23 103 163 221 302 143 167 408 412 555 514 97 67 206
140 209 140 4 0 34 18 130 77 38 23 260 132 315 153 89 36 272 100 310 110 19
4 69 17 110 28 41 10 100 24 130 30 30 6 82 16 115 23 225 44 708 49 973 9 34
-5 95 -14 135 -21 39 -6 90 -14 112 -19 22 -5 74 -16 115 -25 138 -29 340 -86
415 -115 11 -5 65 -25 120 -46 146 -54 325 -138 425 -198 19 -12 52 -30 72
-41 20 -10 96 -60 168 -111 373 -261 663 -592 841 -961 30 -62 57 -113 60
-113 4 0 12 15 19 33 27 67 95 173 140 218 89 89 194 113 320 74 13 -4 15 36
15 323 1 366 7 433 66 742 21 112 81 333 109 405 4 11 20 54 35 95 35 98 32
91 119 270 87 180 118 235 192 347 165 248 394 501 644 709 139 116 356 266
503 348 23 13 67 38 97 55 87 49 298 151 415 201 11 4 36 15 55 23 19 9 62 25
95 37 33 12 74 28 92 36 17 8 38 14 46 14 9 0 19 5 22 10 3 6 16 10 29 10 12
0 26 4 31 8 6 4 35 15 65 25 30 9 78 24 105 33 28 8 74 22 103 30 28 8 78 21
110 30 57 16 100 27 177 44 22 5 69 16 105 25 72 17 112 25 245 50 49 9 92 19
95 21 2 3 16 4 30 2 23 -3 26 -9 37 -78z m-12008 3 c72 -34 257 -218 361 -358
70 -94 203 -284 225 -323 6 -9 19 -30 30 -47 11 -16 25 -39 31 -50 6 -11 50
-84 98 -163 47 -78 86 -144 86 -147 0 -3 11 -23 25 -45 73 -116 192 -352 204
-405 12 -55 37 -175 45 -215 4 -24 26 -113 47 -195 5 -22 14 -58 18 -80 5 -22
10 -47 13 -55 3 -8 3 -12 1 -7 -3 4 -10 7 -16 7 -7 0 -27 31 -45 68 -18 37
-63 121 -101 187 -37 66 -77 136 -88 155 -11 19 -35 62 -53 95 -18 33 -41 72
-51 87 -11 14 -19 29 -19 32 0 3 -34 60 -75 126 -41 66 -75 122 -75 124 0 10
-285 435 -319 475 -9 11 -25 32 -36 47 -126 176 -327 386 -436 456 -61 38 -69
46 -69 75 0 54 23 124 52 155 34 36 73 37 147 1z m6648 -249 c39 -17 80 -65
104 -121 17 -40 17 -43 -1 -95 -22 -61 -67 -105 -132 -129 -41 -16 -47 -15
-96 3 -89 33 -154 132 -133 205 17 60 33 81 91 125 52 39 98 43 167 12z
m-7600 -1395 c106 -24 198 -51 230 -67 10 -5 59 -28 108 -52 50 -23 117 -58
150 -78 33 -21 67 -41 77 -47 44 -26 156 -106 183 -130 17 -15 48 -40 70 -57
22 -16 71 -57 108 -90 67 -60 85 -88 123 -191 9 -26 21 -50 25 -53 5 -3 9 -12
9 -20 0 -8 11 -39 24 -67 58 -128 66 -148 69 -165 1 -9 -2 -18 -6 -20 -5 -2
-56 43 -115 99 -138 133 -308 274 -454 377 -64 45 -119 82 -122 82 -3 0 -29
15 -58 33 -82 52 -271 142 -353 167 -22 7 -49 16 -60 20 -44 16 -121 31 -217
42 -208 23 -407 -30 -568 -151 -36 -27 -66 -45 -68 -41 -6 16 61 104 139 182
69 69 170 143 239 175 58 27 104 43 126 43 12 0 26 5 29 10 8 14 252 13 312
-1z m19590 -66 c54 -52 73 -98 73 -177 0 -150 -106 -333 -353 -608 -71 -80
-81 -88 -115 -88 -56 0 -292 -42 -414 -73 -69 -17 -67 -12 17 63 123 109 383
378 464 480 45 58 89 113 97 123 8 9 14 20 14 24 0 3 11 20 23 37 22 29 109
201 121 239 8 27 31 20 73 -20z m-3953 -68 c82 -35 164 -160 153 -232 -17
-104 -111 -198 -214 -217 -45 -8 -125 20 -172 60 -43 37 -91 129 -91 173 0 38
30 108 65 149 26 31 84 68 130 84 25 8 88 0 129 -17z m-16910 -1623 c72 -8 92
-22 102 -72 3 -14 9 -33 15 -42 5 -10 9 -22 9 -28 0 -6 11 -32 24 -59 49 -103
42 -120 -40 -95 -26 8 -62 14 -80 14 -18 0 -45 5 -61 11 -17 7 -115 11 -258
10 -258 0 -326 -9 -535 -68 -30 -9 -64 -19 -75 -23 -200 -76 -312 -136 -470
-254 -80 -60 -238 -211 -309 -296 -59 -72 -180 -257 -228 -350 -34 -67 -44
-80 -46 -61 -2 13 1 28 7 34 6 6 11 21 11 33 0 13 5 26 10 29 6 3 10 12 10 20
0 20 89 211 145 310 143 255 432 552 655 674 152 83 295 145 370 162 19 4 72
17 118 28 46 12 102 22 125 22 23 1 56 5 72 10 34 9 325 3 429 -9z m22409
-1589 c12 -118 7 -374 -8 -487 -37 -280 -111 -498 -239 -705 -90 -145 -176
-242 -340 -383 -69 -60 -198 -148 -216 -148 -6 0 -10 -4 -10 -8 0 -4 -44 -29
-98 -55 l-98 -47 -162 10 c-90 5 -167 12 -171 14 -4 3 -85 6 -179 6 -162 2
-172 3 -178 22 -6 19 0 32 14 34 4 0 14 3 22 6 42 15 129 38 144 38 9 0 24 4
34 9 9 5 42 16 72 25 124 36 288 99 380 145 120 61 186 97 188 103 2 5 8 8 12
8 24 0 225 155 306 235 100 100 184 193 184 204 0 4 8 16 18 27 66 74 179 309
222 464 7 25 16 56 21 70 22 66 42 207 55 383 4 53 10 97 14 97 4 0 10 -30 13
-67z m-7732 -1373 c74 -29 114 -64 149 -128 41 -75 41 -138 0 -208 -52 -91
-134 -144 -224 -144 -30 0 -58 5 -61 10 -3 6 -14 10 -24 10 -28 0 -116 91
-140 145 -54 119 18 257 163 317 54 22 75 22 137 -2z m-16122 -335 c55 -42
242 -157 322 -199 51 -27 74 -45 66 -53 -4 -3 -45 -2 -91 5 -99 13 -312 0
-379 -23 -23 -8 -48 -15 -56 -15 -7 0 -40 -18 -72 -39 -81 -54 -90 -46 -92 80
0 78 3 102 22 140 25 52 60 88 111 114 19 10 42 21 50 26 31 17 62 8 119 -36z
m21339 -1 c100 -49 152 -170 108 -251 -35 -66 -125 -133 -179 -133 -60 0 -150
61 -184 124 -45 84 4 207 102 259 39 21 113 21 153 1z m-18108 -330 c57 -20
74 -35 99 -90 27 -56 26 -93 0 -149 -35 -75 -118 -109 -205 -85 -92 26 -139
117 -109 216 17 58 44 87 100 107 53 19 62 19 115 1z m5163 -49 c4 -8 2 -17
-3 -20 -6 -4 -10 3 -10 14 0 25 6 27 13 6z m15704 -633 c6 -4 18 -34 27 -67
13 -51 13 -69 2 -120 -21 -99 -72 -179 -149 -234 -48 -34 -181 -101 -202 -101
-8 0 -16 -4 -19 -9 -3 -5 -18 -11 -33 -14 -16 -3 -59 -13 -98 -22 -92 -22
-166 -34 -300 -46 -60 -5 -147 -14 -191 -21 -84 -11 -316 -7 -649 11 -222 13
-239 16 -312 68 -35 23 -65 43 -68 43 -2 0 -28 15 -58 33 -83 51 -88 53 -167
95 -122 65 -151 79 -222 112 -38 17 -68 33 -68 36 0 4 24 4 53 0 598 -72 1362
-85 1773 -28 113 15 285 57 379 91 77 28 200 99 237 135 48 48 49 49 65 38z
m-23515 -466 c113 -52 291 -123 408 -162 25 -8 54 -19 65 -24 11 -5 58 -21
105 -36 47 -14 94 -30 105 -35 11 -4 29 -9 39 -11 11 -2 19 -7 18 -13 -3 -13
-59 -12 -202 4 -148 17 -495 19 -630 3 -94 -10 -163 -22 -285 -50 -42 -10
-156 -46 -190 -61 -81 -36 -176 -85 -186 -97 -6 -8 -17 -14 -23 -14 -19 0
-159 -123 -209 -185 -53 -65 -117 -160 -117 -174 0 -4 -11 -29 -25 -55 -14
-26 -25 -55 -25 -65 0 -9 -4 -21 -8 -26 -10 -12 -41 -119 -44 -155 -2 -14 -10
-26 -19 -28 -13 -2 -19 14 -29 92 -14 107 -8 191 22 311 11 44 22 91 25 104 3
13 21 55 39 92 19 38 34 72 34 75 0 29 225 294 250 294 4 0 20 11 35 24 40 35
217 121 305 149 125 40 310 74 412 76 45 1 72 -6 130 -33z m19613 -893 c25
-25 53 -62 64 -82 36 -68 59 -116 67 -136 5 -16 9 -8 18 32 6 28 14 55 19 59
4 4 7 15 7 24 0 22 65 97 101 115 34 18 130 20 147 3 15 -15 17 -194 2 -203
-5 -3 -10 -15 -10 -26 0 -11 -11 -40 -25 -65 -14 -25 -25 -49 -25 -54 0 -9 57
7 76 22 6 4 61 11 122 15 109 6 110 6 136 -20 22 -22 26 -35 26 -80 0 -44 -5
-59 -27 -84 -16 -16 -35 -33 -43 -36 -8 -4 -22 -11 -30 -16 -8 -5 -35 -15 -60
-21 -25 -7 -62 -19 -83 -26 -20 -8 -49 -14 -62 -14 -31 0 -31 -4 1 -38 42 -45
109 -145 122 -183 21 -62 12 -129 -22 -151 -21 -14 -87 -8 -131 12 -24 11 -73
49 -110 85 -36 36 -68 65 -70 65 -3 0 -5 -22 -5 -49 0 -55 -26 -181 -41 -196
-5 -5 -9 -15 -9 -23 0 -18 -48 -61 -76 -68 -12 -3 -36 -4 -55 -2 -29 2 -36 8
-46 38 -14 42 -17 269 -3 304 5 14 8 26 6 26 -2 0 -24 -16 -47 -36 -24 -20
-53 -40 -64 -45 -11 -5 -33 -18 -50 -28 -24 -16 -49 -20 -126 -20 -92 -1 -97
0 -113 24 -10 15 -16 46 -16 79 0 53 2 58 48 104 26 26 68 59 94 72 43 21 46
24 30 36 -9 7 -30 14 -47 14 -36 0 -101 22 -117 38 -7 7 -17 12 -23 12 -28 0
-55 108 -41 164 l6 26 123 -1 c114 0 227 -18 265 -42 14 -9 16 4 3 19 -19 20
-91 165 -91 183 0 11 -4 23 -10 26 -5 3 -10 39 -10 79 0 97 16 116 101 116 58
0 61 -1 104 -47z m-16302 -525 c69 -39 131 -123 177 -243 25 -65 40 -113 40
-132 0 -12 5 -25 10 -28 6 -3 10 -22 10 -41 0 -19 7 -51 15 -71 8 -19 15 -57
15 -84 0 -26 5 -51 10 -54 6 -3 10 -32 10 -63 0 -31 7 -84 15 -117 8 -33 14
-87 15 -120 l0 -60 26 50 c15 28 33 57 40 66 8 8 14 19 14 24 0 4 19 35 43 69
23 34 48 70 55 81 77 123 202 269 278 327 109 83 161 106 241 107 64 1 79 -3
121 -28 85 -53 122 -122 122 -230 0 -75 -17 -146 -51 -213 -5 -10 -9 -22 -9
-27 0 -10 -65 -108 -130 -196 -73 -100 -215 -259 -297 -334 l-78 -71 47 0 c26
0 50 -4 53 -10 3 -5 26 -10 50 -10 24 0 47 -4 50 -10 3 -5 17 -10 31 -10 27 0
117 -25 146 -41 10 -5 29 -9 42 -9 14 0 28 -4 31 -10 3 -5 17 -10 31 -10 13 0
32 -4 42 -10 9 -5 35 -16 57 -26 72 -29 89 -38 143 -71 29 -18 56 -33 60 -33
11 0 95 -90 117 -124 22 -37 26 -147 6 -194 -19 -45 -95 -97 -156 -108 -73
-11 -258 -9 -350 5 -44 7 -100 14 -125 17 -25 3 -49 10 -55 15 -5 5 -26 9 -46
9 -21 0 -41 5 -44 10 -3 6 -18 10 -33 10 -15 0 -40 7 -56 15 -15 8 -39 15 -52
15 -12 0 -26 5 -29 10 -7 11 -45 14 -45 4 0 -4 15 -27 33 -53 19 -25 37 -53
40 -61 7 -16 20 -37 52 -85 11 -16 32 -53 46 -80 14 -28 31 -60 36 -70 6 -11
23 -47 38 -80 15 -33 31 -68 36 -77 5 -10 9 -26 9 -36 0 -9 6 -26 14 -37 7
-11 17 -40 21 -65 10 -60 10 -286 0 -328 -4 -18 -30 -56 -59 -87 -49 -53 -54
-55 -103 -55 -33 0 -55 5 -63 15 -7 8 -19 15 -26 15 -28 0 -161 148 -234 260
-96 147 -96 148 -120 195 -11 22 -24 47 -29 55 -21 37 -110 215 -145 290 l-16
35 0 -36 c0 -20 -7 -50 -15 -65 -8 -16 -15 -37 -15 -46 0 -9 -4 -20 -10 -23
-5 -3 -10 -21 -10 -40 0 -19 -4 -37 -10 -40 -5 -3 -10 -15 -10 -26 0 -19 -2
-26 -33 -87 -9 -19 -17 -40 -17 -48 0 -8 -4 -22 -9 -32 -32 -63 -81 -168 -81
-174 0 -11 -118 -178 -149 -211 -42 -46 -101 -82 -168 -102 -60 -17 -64 -17
-120 0 -32 10 -67 23 -78 29 -42 23 -87 73 -106 116 -11 25 -24 53 -29 62 -13
23 -13 155 0 163 5 3 12 28 16 56 4 27 11 52 15 55 5 3 9 16 9 29 0 13 5 27
10 30 6 3 10 15 10 26 0 11 11 37 25 59 14 22 25 45 26 52 0 7 14 33 30 58 16
25 33 54 38 65 5 11 39 64 75 119 54 80 61 95 39 80 -88 -58 -350 -184 -383
-184 -10 0 -22 -4 -25 -10 -3 -5 -17 -10 -29 -10 -13 0 -40 -7 -59 -15 -27
-11 -75 -15 -180 -15 -155 0 -168 3 -254 62 -67 45 -93 91 -93 164 0 61 0 61
62 129 34 37 80 79 101 94 59 38 130 81 147 87 8 3 47 21 86 40 39 19 76 34
83 34 6 0 19 4 29 9 44 24 87 41 103 41 10 0 21 5 24 10 3 6 13 10 22 10 8 0
29 6 46 14 18 7 59 22 92 31 33 10 64 21 70 26 5 5 21 9 36 9 15 0 31 5 34 10
3 6 18 10 33 10 15 1 41 7 57 14 l30 13 -25 7 c-29 8 -48 16 -155 61 -16 7
-41 17 -55 22 -96 40 -303 149 -396 210 -128 83 -247 196 -287 273 -22 43 -27
65 -27 126 0 53 5 83 17 102 27 44 76 92 93 92 9 0 25 7 36 15 22 17 179 21
189 5 3 -5 18 -10 33 -10 52 0 258 -79 397 -152 10 -6 42 -23 70 -37 27 -14
64 -36 82 -49 17 -12 34 -22 38 -22 3 0 31 -16 61 -35 30 -19 57 -35 60 -35 3
0 20 -11 36 -25 37 -31 45 -27 25 12 -38 71 -87 183 -102 233 -9 30 -20 63
-26 72 -5 10 -9 29 -9 42 0 14 -7 51 -15 83 -17 64 -20 248 -5 258 6 3 10 15
10 27 0 18 12 49 42 114 17 36 148 164 168 164 10 0 22 5 25 10 9 14 91 12
118 -2z m-3727 -1111 c138 -99 154 -111 154 -117 0 -4 -37 -51 -82 -106 -162
-195 -348 -510 -418 -709 -30 -87 -77 -234 -88 -280 -6 -22 -16 -60 -22 -85
-36 -134 -50 -282 -56 -574 -4 -174 -2 -281 6 -325 6 -36 16 -100 21 -141 11
-95 23 -162 39 -225 6 -27 16 -68 22 -90 9 -39 33 -126 48 -175 4 -14 16 -52
26 -85 10 -33 22 -65 27 -72 5 -7 6 -17 2 -23 -8 -13 -19 4 -55 80 -62 131
-130 321 -171 475 -4 17 -15 55 -23 86 -9 31 -16 64 -16 74 0 10 -4 32 -9 49
-6 17 -17 78 -26 136 -9 58 -21 134 -26 170 -25 154 -12 637 21 783 5 23 14
69 20 102 16 84 67 272 90 330 62 158 98 238 145 330 88 172 269 435 298 435
7 0 40 -19 73 -43z m5912 -2294 c57 -64 36 -154 -44 -192 -55 -26 -102 -14
-144 37 -41 50 -42 103 0 154 33 40 55 48 115 42 31 -3 48 -13 73 -41z m-2588
-1673 c0 -5 -5 -10 -11 -10 -6 0 -25 -11 -43 -25 -18 -14 -35 -25 -38 -25 -9
0 -231 -151 -328 -223 -223 -167 -381 -311 -496 -456 -70 -89 -149 -222 -175
-296 -14 -41 -29 -128 -29 -172 l0 -45 -32 6 c-76 15 -168 115 -199 216 -22
74 -18 204 10 280 55 152 274 418 363 440 252 62 602 171 624 193 4 4 16 7 26
7 10 0 26 4 36 10 9 5 64 28 122 51 58 23 109 46 115 50 13 12 55 11 55 -1z"/>
<path d="M44637 32936 c-54 -58 -253 -492 -338 -737 l-33 -96 -71 33 c-160 74
-348 103 -705 110 -261 5 -346 12 -425 39 -22 7 -51 12 -65 10 -14 -2 -68 -9
-120 -15 -141 -17 -343 -59 -358 -74 -28 -28 -44 -272 -39 -606 2 -173 7 -322
11 -330 5 -12 -8 -23 -49 -43 -30 -15 -58 -27 -61 -27 -15 0 23 33 58 51 34
18 38 23 38 59 0 33 -3 38 -17 34 -15 -5 -15 -4 -3 5 8 5 11 14 6 18 -4 4 -14
-1 -22 -11 -8 -11 -14 -14 -14 -8 0 8 -9 10 -25 6 -31 -8 -33 3 -2 16 31 13
-51 3 -123 -15 -30 -8 -98 -17 -150 -21 -100 -8 -150 -26 -325 -116 -112 -58
-120 -73 -10 -19 135 66 163 77 217 85 57 9 92 -6 83 -35 -4 -11 -2 -19 4 -19
23 0 10 -22 -19 -31 -32 -12 -31 -29 2 -29 17 0 19 -4 13 -27 -4 -16 -8 -46
-10 -68 -1 -23 -19 -73 -39 -113 -86 -171 -86 -316 1 -587 32 -102 176 -399
237 -489 25 -38 46 -71 46 -73 0 -3 -11 2 -25 11 -28 18 -61 21 -70 5 -4 -6
-22 -9 -40 -7 -19 1 -37 0 -40 -4 -4 -4 6 -28 21 -54 94 -159 315 -402 372
-409 9 -1 56 -20 103 -43 47 -23 135 -54 195 -70 96 -25 109 -31 108 -50 0
-14 9 -25 26 -32 34 -14 74 -57 129 -137 l43 -61 -36 -89 c-19 -48 -45 -135
-58 -193 -20 -95 -22 -131 -22 -375 0 -228 4 -292 22 -415 40 -260 120 -579
192 -765 10 -27 24 -83 30 -123 10 -60 16 -75 34 -84 14 -6 29 -29 40 -57 9
-27 37 -83 62 -126 l46 -77 56 6 c32 4 113 16 180 27 68 11 130 18 138 15 9
-3 12 -1 9 4 -3 6 2 10 11 10 9 0 67 49 128 108 111 108 239 225 393 357 45
39 87 82 94 97 16 38 4 75 -29 92 -15 8 -135 42 -267 76 -394 100 -505 144
-505 199 0 33 34 67 81 82 97 29 635 14 914 -27 349 -50 426 -57 453 -40 30
18 7 33 -80 54 -331 78 -713 201 -1098 353 -268 106 -375 162 -375 198 0 21 7
27 50 38 92 23 583 -19 843 -72 40 -9 77 -13 81 -11 4 3 86 -8 182 -24 96 -17
242 -37 324 -45 83 -9 171 -18 198 -22 29 -3 47 -2 47 5 0 10 -42 26 -255 97
-60 20 -128 45 -150 55 -72 33 -253 98 -332 120 -242 68 -535 175 -700 256
-95 46 -177 93 -182 103 -7 13 -6 24 4 37 12 17 26 19 162 16 150 -2 288 -18
468 -53 55 -11 127 -24 160 -29 33 -5 146 -22 250 -39 105 -17 208 -33 230
-37 22 -3 85 -17 140 -30 55 -13 147 -31 205 -39 58 -9 113 -18 123 -21 11 -4
17 0 17 11 0 19 -72 53 -300 141 -271 105 -581 291 -812 487 -67 56 -74 86
-31 114 22 14 54 19 167 21 121 3 159 0 268 -22 154 -31 338 -82 473 -129 55
-20 101 -34 102 -33 4 3 -190 157 -272 216 -184 133 -203 150 -220 193 -15 39
-15 49 0 121 22 104 50 178 78 203 30 28 59 36 302 82 270 52 538 119 640 160
276 111 457 334 584 721 83 253 114 448 115 715 1 216 -15 311 -74 430 -106
218 -365 409 -795 585 -225 92 -324 142 -389 195 -63 51 -84 59 -266 105 -94
24 -317 70 -336 70 -3 0 -15 -11 -27 -24z m-208 -527 c-19 -53 -28 -93 -24
-109 9 -38 9 -73 0 -95 -4 -11 -19 -47 -32 -80 -40 -99 -111 -315 -132 -400
-10 -44 -28 -107 -40 -140 -14 -38 -21 -84 -21 -130 -1 -52 -3 -66 -11 -52 -5
9 -17 17 -24 17 -18 0 -20 -20 15 167 61 329 158 653 247 826 25 48 47 86 49
84 2 -2 -10 -41 -27 -88z m-1909 -745 c0 -48 6 -79 24 -117 21 -47 24 -71 30
-232 3 -99 11 -207 16 -240 6 -33 15 -106 19 -161 5 -59 15 -111 24 -125 8
-13 18 -35 21 -49 6 -20 5 -22 -4 -8 -6 9 -17 15 -25 12 -16 -7 -24 17 -59
196 -53 267 -81 558 -69 711 7 96 23 105 23 13z m3730 -119 c0 -19 -48 -25
-62 -7 -11 13 -8 14 20 8 34 -8 40 1 20 24 -11 12 -10 12 5 1 9 -7 17 -19 17
-26z m-65 -36 c-5 -7 5 -8 29 -4 29 6 36 4 36 -9 0 -9 -5 -16 -11 -16 -5 0 -7
4 -4 10 3 6 -1 7 -10 4 -10 -4 -15 -14 -12 -25 3 -10 0 -20 -7 -22 -7 -3 -5
-11 7 -25 22 -24 8 -37 -28 -28 -41 11 -45 66 -4 66 10 0 19 5 19 10 0 6 -7
10 -15 10 -8 0 -15 9 -15 20 0 11 5 20 11 20 5 0 7 -5 4 -11z m212 -131 c-3
-8 -6 -5 -6 6 -1 11 2 17 5 13 3 -3 4 -12 1 -19z m-182 -17 c-3 -6 -15 -11
-26 -11 -26 0 -24 -12 6 -40 25 -23 33 -54 17 -64 -4 -3 -28 0 -52 5 -74 17
-80 9 -32 -42 23 -26 60 -59 82 -74 38 -26 53 -55 29 -55 -15 0 -126 108 -149
146 -22 34 -18 64 9 64 9 0 33 -4 54 -9 20 -5 37 -7 37 -4 0 3 -11 19 -25 35
-29 35 -21 55 23 60 32 4 36 3 27 -11z m172 -53 c-3 -8 -6 -5 -6 6 -1 11 2 17
5 13 3 -3 4 -12 1 -19z m-10 -70 c-3 -7 -5 -2 -5 12 0 14 2 19 5 13 2 -7 2
-19 0 -25z m-10 -50 c-3 -8 -6 -5 -6 6 -1 11 2 17 5 13 3 -3 4 -12 1 -19z
m-10 -50 c-3 -8 -6 -5 -6 6 -1 11 2 17 5 13 3 -3 4 -12 1 -19z m-10 -50 c-3
-8 -6 -5 -6 6 -1 11 2 17 5 13 3 -3 4 -12 1 -19z m-10 -40 c-3 -8 -6 -5 -6 6
-1 11 2 17 5 13 3 -3 4 -12 1 -19z m-4193 -53 c-16 -24 -15 -25 4 -25 11 0 25
7 32 15 18 22 27 18 34 -15 3 -16 10 -30 16 -30 11 0 62 -34 88 -57 7 -7 16
-13 20 -13 4 0 19 -10 34 -23 15 -12 52 -40 83 -61 30 -22 55 -43 55 -47 0 -5
7 -5 17 -2 11 4 14 3 9 -5 -7 -11 7 -16 41 -15 7 1 18 -18 23 -41 24 -92 102
-311 145 -402 75 -162 229 -371 286 -389 31 -10 171 -110 218 -155 45 -44 75
-100 87 -164 5 -29 4 -37 -5 -32 -6 4 -40 -8 -75 -27 -110 -61 -219 -92 -316
-92 -106 1 -170 22 -252 82 -86 63 -146 122 -248 238 -282 324 -440 682 -428
971 4 86 9 110 35 165 17 35 47 83 68 107 41 47 54 55 29 17z m403 -117 c-3
-7 -5 -2 -5 12 0 14 2 19 5 13 2 -7 2 -19 0 -25z m1810 -60 c-3 -8 -6 -5 -6 6
-1 11 2 17 5 13 3 -3 4 -12 1 -19z m-1790 -20 c-3 -8 -6 -5 -6 6 -1 11 2 17 5
13 3 -3 4 -12 1 -19z m10 -55 c-3 -10 -5 -4 -5 12 0 17 2 24 5 18 2 -7 2 -21
0 -30z m1741 -460 c34 -51 62 -98 62 -105 0 -23 -130 165 -164 237 -50 106
-53 130 -4 40 24 -44 71 -121 106 -172z m1742 204 c0 -2 -12 -14 -27 -28 l-28
-24 24 28 c23 25 31 32 31 24z m-1819 -152 c7 -13 3 -12 -10 5 -11 14 -21 30
-21 35 0 11 14 -7 31 -40z m40 -57 c17 -24 18 -29 6 -19 -18 14 -42 51 -33 51
3 0 15 -15 27 -32z m39 -58 c6 -11 8 -20 6 -20 -3 0 -10 9 -16 20 -6 11 -8 20
-6 20 3 0 10 -9 16 -20z m67 -178 c6 -55 -17 -190 -53 -303 -19 -62 -35 -89
-74 -132 -27 -30 -47 -57 -44 -60 3 -3 -47 -40 -112 -83 -66 -42 -155 -108
-199 -146 l-80 -70 95 93 c72 70 120 108 193 148 53 30 94 57 92 59 -7 8 -198
-105 -248 -147 l-48 -40 -41 18 c-23 10 -50 28 -60 42 -42 57 -62 273 -28 314
8 10 114 84 235 165 121 82 247 168 280 193 l60 44 13 -24 c7 -13 16 -45 19
-71z m-1244 -187 c158 -111 137 -110 -33 1 -36 23 -87 66 -115 95 l-50 53 45
-37 c25 -20 93 -71 153 -112z m1287 101 c0 -14 -4 -28 -10 -31 -6 -4 -10 7
-10 24 0 17 5 31 10 31 6 0 10 -11 10 -24z m-14 -214 c7 -4 -4 -20 -28 -43
-21 -20 -38 -34 -38 -33 0 2 7 22 16 44 16 39 28 47 50 32z m77 -19 c-7 -2
-21 -2 -30 0 -10 3 -4 5 12 5 17 0 24 -2 18 -5z m-1123 -129 c0 -8 -4 -12 -10
-9 -5 3 -10 13 -10 21 0 8 5 12 10 9 6 -3 10 -13 10 -21z m920 -44 c24 -8 24
-8 -7 -9 -17 -1 -35 4 -38 9 -7 11 9 11 45 0z m-943 -62 c-3 -7 -5 -2 -5 12 0
14 2 19 5 13 2 -7 2 -19 0 -25z m153 -58 c-8 -5 -19 -10 -25 -10 -5 0 -3 5 5
10 8 5 20 10 25 10 6 0 3 -5 -5 -10z m-57 -18 c-7 -4 -19 -26 -27 -47 l-15
-40 0 48 c-1 45 0 47 27 47 17 0 22 -3 15 -8z m-433 -216 c-19 -13 -37 -22
-39 -21 -7 7 12 27 33 35 39 16 41 10 6 -14z m373 7 c-7 -2 -19 -2 -25 0 -7 3
-2 5 12 5 14 0 19 -2 13 -5z m-85 -74 c-78 -112 -92 -133 -131 -204 -45 -82
-39 -49 8 45 28 56 148 220 161 220 3 0 -15 -28 -38 -61z m-175 -48 c38 -36
40 -41 27 -55 -14 -14 -19 -11 -53 34 -20 27 -37 52 -37 55 0 15 25 1 63 -34z
m214 -1003 c-3 -8 -6 -5 -6 6 -1 11 2 17 5 13 3 -3 4 -12 1 -19z m-10 -60 c-3
-8 -6 -5 -6 6 -1 11 2 17 5 13 3 -3 4 -12 1 -19z m57 -134 c1 -25 7 -49 13
-52 6 -4 11 -24 10 -45 -1 -22 5 -42 12 -47 13 -8 12 -19 -4 -65 -5 -16 -5
-17 4 -5 6 9 11 10 11 3 0 -6 -7 -18 -15 -26 -11 -12 -12 -22 -4 -48 14 -44
17 -109 6 -102 -4 3 -11 -4 -14 -16 -3 -11 -9 -18 -14 -15 -5 3 -9 1 -9 -4 0
-5 9 -12 20 -15 14 -4 18 -10 14 -22 -5 -11 -9 -13 -14 -5 -11 18 -27 -9 -33
-55 -7 -58 -29 -149 -38 -159 -34 -38 -42 295 -14 533 18 153 41 236 57 207 5
-9 10 -37 12 -62z m203 -126 c-2 -35 -3 -9 -3 57 0 66 1 94 3 63 2 -32 2 -86
0 -120z m-280 130 c-3 -8 -6 -5 -6 6 -1 11 2 17 5 13 3 -3 4 -12 1 -19z m290
-255 c-3 -10 -5 -2 -5 17 0 19 2 27 5 18 2 -10 2 -26 0 -35z m10 -55 c-3 -7
-5 -2 -5 12 0 14 2 19 5 13 2 -7 2 -19 0 -25z m27 -34 c3 -8 2 -12 -4 -9 -6 3
-10 1 -10 -6 0 -7 -2 -10 -5 -7 -5 5 4 38 10 38 2 0 6 -7 9 -16z m-429 -49
c11 -21 26 -40 33 -43 7 -2 13 -11 14 -20 1 -9 4 8 8 38 3 32 6 -27 7 -138 1
-107 0 -192 -2 -190 -15 15 -105 341 -105 380 0 30 22 16 45 -27z m581 -43
c-3 -5 3 -41 14 -80 l18 -72 -27 19 c-14 11 -37 31 -50 45 l-25 26 34 35 c33
34 47 44 36 27z m-367 -568 c10 -9 -35 -3 -49 6 -11 8 -7 9 15 4 17 -4 32 -8
34 -10z m68 -20 c-3 -3 -12 -4 -19 -1 -8 3 -5 6 6 6 11 1 17 -2 13 -5z"/>
<path d="M46160 31441 c0 -15 30 -41 47 -41 13 0 13 3 3 16 -18 21 -50 37 -50
25z"/>
<path d="M28944 32643 c2 -10 7 -45 10 -78 20 -193 99 -451 197 -640 57 -109
72 -135 140 -231 55 -77 226 -260 285 -304 48 -37 171 -117 187 -123 16 -6 16
-9 3 -34 -8 -16 -23 -37 -33 -48 -10 -11 -40 -50 -68 -85 -27 -36 -52 -67 -55
-70 -15 -13 -180 -252 -180 -260 0 -6 -5 -10 -12 -10 -6 0 -9 -3 -5 -6 6 -7
75 40 127 86 19 18 78 68 130 113 174 151 320 299 320 326 0 23 -44 81 -61 81
-5 0 -25 11 -46 25 -21 14 -47 31 -57 38 -98 64 -232 184 -337 304 -49 55
-219 287 -219 298 0 3 -12 24 -26 47 -54 86 -181 330 -229 443 -10 22 -26 58
-36 79 -11 22 -19 46 -19 53 0 7 -5 13 -11 13 -6 0 -8 -8 -5 -17z"/>
<path d="M41671 30904 c0 -11 3 -14 6 -6 3 7 2 16 -1 19 -3 4 -6 -2 -5 -13z"/>
<path d="M41680 30871 c0 -19 43 -162 47 -157 4 3 -36 158 -43 165 -2 2 -4 -1
-4 -8z"/>
<path d="M37278 30838 c17 -8 26 -8 34 0 9 9 4 12 -22 11 -33 0 -34 -1 -12
-11z"/>
<path d="M37325 30820 c3 -5 17 -10 31 -10 13 0 24 -4 24 -10 0 -5 16 -10 36
-10 21 0 33 4 29 10 -3 6 -19 10 -35 10 -16 0 -32 5 -35 10 -3 6 -17 10 -31
10 -14 0 -22 -4 -19 -10z"/>
<path d="M37465 30771 c43 -17 92 -31 113 -31 11 0 24 -4 27 -10 3 -5 26 -10
50 -10 24 0 45 -4 47 -10 5 -14 98 -26 98 -12 0 6 -17 14 -37 17 -21 3 -52 10
-69 15 -17 6 -42 10 -57 10 -14 0 -29 5 -32 10 -3 6 -21 10 -40 10 -19 0 -37
5 -40 10 -3 6 -23 10 -43 9 -29 0 -33 -2 -17 -8z"/>
<path d="M37820 30680 c20 -13 130 -13 130 0 0 6 -31 10 -72 10 -51 0 -68 -3
-58 -10z"/>
<path d="M37510 29679 c0 -11 4 -18 10 -14 5 3 7 12 3 20 -7 21 -13 19 -13 -6z"/>
<path d="M36990 29630 c0 -6 7 -10 15 -10 8 0 15 2 15 4 0 2 -7 6 -15 10 -8 3
-15 1 -15 -4z"/>
<path d="M37530 29576 c0 -48 -3 -57 -27 -75 -26 -19 -27 -20 -7 -21 12 0 29
11 38 25 18 27 22 110 6 120 -6 4 -10 -15 -10 -49z"/>
<path d="M37038 29603 c7 -3 16 -2 19 1 4 3 -2 6 -13 5 -11 0 -14 -3 -6 -6z"/>
<path d="M37080 29580 c0 -5 5 -10 10 -10 6 0 10 5 10 10 0 6 -4 10 -10 10 -5
0 -10 -4 -10 -10z"/>
<path d="M37120 29560 c0 -5 7 -10 16 -10 8 0 12 5 9 10 -3 6 -10 10 -16 10
-5 0 -9 -4 -9 -10z"/>
<path d="M37168 29533 c6 -2 18 -2 25 0 6 3 1 5 -13 5 -14 0 -19 -2 -12 -5z"/>
<path d="M37225 29510 c3 -5 13 -10 21 -10 8 0 14 5 14 10 0 6 -9 10 -21 10
-11 0 -17 -4 -14 -10z"/>
<path d="M37285 29490 c-4 -6 9 -10 32 -10 28 0 34 3 23 10 -20 13 -47 13 -55
0z"/>
<path d="M37403 29463 c9 -2 25 -2 35 0 9 3 1 5 -18 5 -19 0 -27 -2 -17 -5z"/>
<path d="M36495 28650 c-3 -5 -1 -10 4 -10 6 0 11 5 11 10 0 6 -2 10 -4 10 -3
0 -8 -4 -11 -10z"/>
<path d="M36375 28530 c-3 -5 -1 -10 4 -10 6 0 11 5 11 10 0 6 -2 10 -4 10 -3
0 -8 -4 -11 -10z"/>
<path d="M35380 28520 c0 -5 5 -10 11 -10 5 0 7 5 4 10 -3 6 -8 10 -11 10 -2
0 -4 -4 -4 -10z"/>
<path d="M36305 28480 c-3 -5 -1 -10 4 -10 6 0 11 5 11 10 0 6 -2 10 -4 10 -3
0 -8 -4 -11 -10z"/>
<path d="M35478 28473 c7 -3 16 -2 19 1 4 3 -2 6 -13 5 -11 0 -14 -3 -6 -6z"/>
<path d="M35540 28450 c0 -5 5 -10 11 -10 5 0 7 5 4 10 -3 6 -8 10 -11 10 -2
0 -4 -4 -4 -10z"/>
<path d="M36210 28429 c0 -5 5 -7 10 -4 6 3 10 8 10 11 0 2 -4 4 -10 4 -5 0
-10 -5 -10 -11z"/>
<path d="M35598 28423 c6 -2 18 -2 25 0 6 3 1 5 -13 5 -14 0 -19 -2 -12 -5z"/>
<path d="M35678 28403 c6 -2 18 -2 25 0 6 3 1 5 -13 5 -14 0 -19 -2 -12 -5z"/>
<path d="M36148 28403 c6 -2 18 -2 25 0 6 3 1 5 -13 5 -14 0 -19 -2 -12 -5z"/>
<path d="M35765 28380 c3 -5 17 -10 30 -10 13 0 27 5 30 10 4 6 -8 10 -30 10
-22 0 -34 -4 -30 -10z"/>
<path d="M36033 28383 c15 -2 37 -2 50 0 12 2 0 4 -28 4 -27 0 -38 -2 -22 -4z"/>
<path d="M19811 26562 c-1 -40 3 -61 9 -57 12 7 12 59 0 95 -6 19 -8 9 -9 -38z"/>
<path d="M19830 26446 c0 -19 5 -38 10 -41 6 -4 10 10 10 34 0 23 -4 41 -10
41 -5 0 -10 -15 -10 -34z"/>
<path d="M19857 26383 c-9 -15 2 -63 14 -63 5 0 9 -13 9 -29 0 -17 5 -33 10
-36 12 -7 14 48 3 59 -5 4 -13 24 -18 44 -7 23 -13 32 -18 25z"/>
<path d="M19900 26226 c0 -8 7 -21 15 -30 8 -8 15 -24 15 -35 0 -12 5 -21 10
-21 6 0 10 -9 10 -19 0 -11 5 -23 10 -26 13 -8 13 20 1 43 -6 9 -18 36 -27 60
-18 42 -34 55 -34 28z"/>
<path d="M22911 25694 c0 -11 3 -14 6 -6 3 7 2 16 -1 19 -3 4 -6 -2 -5 -13z"/>
<path d="M22930 25630 c0 -5 5 -10 10 -10 6 0 10 5 10 10 0 6 -4 10 -10 10 -5
0 -10 -4 -10 -10z"/>
<path d="M22961 25584 c0 -11 3 -14 6 -6 3 7 2 16 -1 19 -3 4 -6 -2 -5 -13z"/>
<path d="M22980 25560 c0 -5 5 -10 11 -10 5 0 7 5 4 10 -3 6 -8 10 -11 10 -2
0 -4 -4 -4 -10z"/>
<path d="M23035 25510 c3 -5 8 -10 11 -10 2 0 4 5 4 10 0 6 -5 10 -11 10 -5 0
-7 -4 -4 -10z"/>
<path d="M23084 25488 c-3 -4 27 -8 65 -8 39 0 71 3 71 8 0 10 -130 10 -136 0z"/>
<path d="M34295 17001 c-105 -53 -215 -107 -245 -120 -84 -37 -149 -66 -213
-95 -32 -14 -63 -26 -70 -26 -6 0 -22 -8 -35 -18 l-23 -18 34 -60 c68 -115
108 -190 176 -329 75 -153 131 -273 131 -279 0 -3 16 -39 35 -80 19 -42 35
-79 35 -82 0 -3 7 -22 16 -42 9 -21 20 -46 24 -57 5 -11 16 -38 25 -60 17 -41
20 -48 50 -125 10 -25 21 -54 25 -65 5 -11 34 -89 66 -173 31 -84 62 -159 68
-168 10 -14 17 -14 61 1 28 10 64 23 80 30 17 7 77 32 135 55 58 23 125 51
150 62 25 11 61 27 80 35 59 26 224 103 250 117 14 8 77 41 140 73 104 54 155
82 245 133 17 10 57 33 89 51 87 50 87 53 37 156 -24 48 -54 102 -67 120 -13
17 -24 34 -24 38 0 11 -171 235 -228 298 -158 176 -358 363 -557 524 -135 108
-271 203 -287 202 -7 -1 -99 -45 -203 -98z"/>
<path d="M33220 16568 c-30 -11 -68 -24 -85 -28 -16 -5 -46 -13 -65 -19 -19
-5 -60 -17 -90 -26 -30 -8 -73 -20 -95 -25 -22 -5 -67 -16 -100 -25 -33 -8
-78 -19 -100 -24 -22 -5 -71 -17 -110 -25 -38 -9 -90 -20 -115 -25 -25 -5 -90
-18 -145 -29 -55 -11 -120 -23 -145 -26 -74 -11 -74 -10 -50 -122 11 -54 25
-124 30 -154 5 -30 16 -89 25 -130 8 -41 19 -97 25 -125 5 -27 17 -88 26 -135
9 -47 20 -105 24 -130 5 -25 16 -81 25 -125 9 -44 20 -100 25 -125 4 -25 16
-83 25 -130 9 -47 21 -105 25 -130 4 -25 15 -79 24 -120 9 -41 21 -102 26
-134 5 -32 14 -64 19 -69 7 -7 35 -7 88 2 43 7 101 17 128 21 28 5 88 16 135
25 47 9 105 21 130 25 63 12 138 28 188 40 23 5 63 15 90 21 26 5 74 17 107
25 33 9 76 19 95 24 79 19 167 42 195 50 17 5 57 16 90 25 33 9 71 20 85 25
14 4 52 16 85 25 175 49 193 61 166 113 -5 9 -17 37 -26 62 -9 25 -21 53 -26
62 -5 10 -9 26 -9 36 0 10 -4 22 -8 27 -5 6 -21 44 -37 85 -15 41 -33 89 -40
105 -7 17 -32 77 -55 135 -51 127 -59 145 -153 353 -79 173 -214 434 -276 532
-17 28 -34 58 -37 68 -8 22 -42 21 -114 -5z"/>
<path d="M27121 16470 c-25 -22 -48 -40 -52 -40 -12 0 -329 -317 -385 -385
-28 -33 -68 -85 -89 -115 -22 -30 -42 -57 -45 -60 -11 -11 -60 -79 -60 -84 0
-3 -16 -28 -35 -55 -19 -26 -35 -51 -35 -54 0 -3 -19 -38 -43 -79 -54 -93
-136 -262 -172 -356 -25 -64 -27 -75 -14 -88 12 -12 183 -61 329 -94 19 -5 80
-20 135 -35 55 -15 116 -30 135 -35 91 -21 130 -30 190 -44 36 -9 88 -21 115
-27 28 -6 68 -15 90 -20 22 -5 60 -13 85 -18 25 -5 90 -18 145 -30 112 -24
185 -38 232 -45 37 -6 42 1 68 80 9 27 20 58 24 69 5 11 16 40 26 65 10 25 21
54 25 65 5 11 25 65 45 120 21 55 43 114 50 130 6 17 18 46 25 65 12 34 20 56
39 103 5 12 21 56 36 97 15 41 30 84 35 95 4 11 15 43 25 70 9 28 20 59 25 70
9 23 71 218 90 285 7 25 18 63 25 85 24 76 27 103 13 112 -11 7 -140 30 -313
58 -44 6 -86 14 -245 46 -58 12 -123 25 -145 29 -22 4 -87 18 -145 30 -174 37
-178 37 -229 -10z"/>
<path d="M28573 16259 c-7 -7 -13 -19 -13 -26 0 -7 -6 -32 -14 -55 -7 -24 -19
-63 -26 -88 -16 -57 -59 -189 -70 -215 -5 -11 -11 -29 -13 -40 -6 -22 -44
-129 -57 -160 -5 -11 -20 -54 -35 -95 -15 -41 -30 -84 -35 -95 -4 -11 -14 -36
-20 -55 -7 -19 -19 -48 -25 -65 -7 -16 -18 -46 -25 -65 -7 -19 -16 -44 -20
-55 -5 -11 -20 -54 -35 -95 -15 -41 -30 -84 -35 -95 -9 -21 -42 -112 -84 -234
-15 -44 -22 -79 -17 -84 5 -5 37 -13 72 -17 35 -5 107 -16 159 -25 117 -19
221 -34 320 -46 41 -4 111 -13 155 -18 214 -25 380 -43 480 -51 429 -34 736
-51 748 -39 16 13 3 1029 -19 1506 l-5 112 -32 6 c-18 3 -138 10 -267 16 -404
17 -784 48 -1035 85 -26 4 -44 1 -52 -7z"/>
<path d="M31475 15910 c-38 -4 -126 -12 -195 -19 -69 -6 -150 -16 -181 -21
-30 -6 -77 -10 -105 -10 -27 0 -76 -5 -109 -10 -33 -6 -108 -15 -166 -19 -59
-5 -112 -12 -118 -15 -7 -5 -11 -63 -11 -174 0 -243 18 -725 27 -732 12 -9
340 11 990 61 83 7 156 15 162 19 8 4 8 22 0 61 -6 30 -15 74 -19 99 -4 25
-16 83 -25 130 -9 47 -21 108 -26 135 -5 28 -16 84 -25 125 -8 41 -19 98 -24
125 -18 108 -38 201 -49 228 -11 29 -6 29 -126 17z"/>
</g>
</svg>
