<?xml version="1.0" encoding="utf-8"?>
<!DOCTYPE svg PUBLIC "-//W3C//DTD SVG 1.1//EN" "http://www.w3.org/Graphics/SVG/1.1/DTD/svg11.dtd">
<svg height="64px" style="shape-rendering:geometricPrecision; text-rendering:geometricPrecision; image-rendering:optimizeQuality; fill-rule:evenodd; clip-rule:evenodd" version="1.1" width="64px" xmlns="http://www.w3.org/2000/svg" xmlns:xlink="http://www.w3.org/1999/xlink">
<g><path d="M 28.5,-0.5 C 30.8333,-0.5 33.1667,-0.5 35.5,-0.5C 42.0843,2.65535 45.0843,7.98869 44.5,15.5C 46.8568,15.3367 49.1902,15.5034 51.5,16C 52.6667,16.5 53.5,17.3333 54,18.5C 55.665,32.4763 56.665,46.4763 57,60.5C 56.3021,61.6906 55.4687,62.6906 54.5,63.5C 39.5,63.5 24.5,63.5 9.5,63.5C 7.31985,61.9687 6.31985,59.8021 6.5,57C 7.50114,44.1503 8.66781,31.317 10,18.5C 10.5,17.3333 11.3333,16.5 12.5,16C 14.8098,15.5034 17.1432,15.3367 19.5,15.5C 18.9157,7.98869 21.9157,2.65535 28.5,-0.5 Z M 29.5,3.5 C 37.2886,3.62458 40.9552,7.62458 40.5,15.5C 34.8333,15.5 29.1667,15.5 23.5,15.5C 23.14,10.1711 25.14,6.1711 29.5,3.5 Z M 20.5,16.5 C 21.7251,17.1522 22.3917,18.3189 22.5,20C 22.5463,21.728 22.0463,23.228 21,24.5C 20.5026,21.854 20.3359,19.1873 20.5,16.5 Z M 41.5,16.5 C 42.7479,17.3339 43.4146,18.6672 43.5,20.5C 43.3333,21.8333 43.1667,23.1667 43,24.5C 41.6253,22.0632 41.1253,19.3965 41.5,16.5 Z" fill="#9f206b" style="opacity:0.935"/></g>
</svg>