<?xml version="1.0" encoding="utf-8"?>
<!DOCTYPE svg PUBLIC "-//W3C//DTD SVG 1.1//EN" "http://www.w3.org/Graphics/SVG/1.1/DTD/svg11.dtd">
<svg height="50px" style="shape-rendering:geometricPrecision; text-rendering:geometricPrecision; image-rendering:optimizeQuality; fill-rule:evenodd; clip-rule:evenodd" version="1.1" width="50px" xmlns="http://www.w3.org/2000/svg" xmlns:xlink="http://www.w3.org/1999/xlink">
<g><path d="M 36.5,45.5 C 36.5,46.1667 36.8333,46.5 37.5,46.5C 27.0131,47.4944 16.3464,47.8278 5.5,47.5C 5.5,32.1667 5.5,16.8333 5.5,1.5C 18.1667,1.5 30.8333,1.5 43.5,1.5C 43.831,9.52766 43.4977,17.5277 42.5,25.5C 41.503,18.5316 41.1697,11.5316 41.5,4.5C 30.1667,4.5 18.8333,4.5 7.5,4.5C 7.5,18.1667 7.5,31.8333 7.5,45.5C 17.1667,45.5 26.8333,45.5 36.5,45.5 Z" fill="#9f206b" style="opacity:0.902"/></g>
<g><path d="M 11.5,10.5 C 17.2055,10.1712 22.8722,10.5046 28.5,11.5C 25.6667,11.8333 22.8333,12.1667 20,12.5C 16.7485,12.4809 13.9151,11.8142 11.5,10.5 Z" fill="#9f206b" style="opacity:0.972"/></g>
<g><path d="M 32.5,10.5 C 34.288,10.2148 35.9547,10.5481 37.5,11.5C 36.6667,11.8333 35.8333,12.1667 35,12.5C 33.6244,12.3158 32.7911,11.6491 32.5,10.5 Z" fill="#9f206b" style="opacity:0.905"/></g>
<g><path d="M 11.5,16.5 C 15.8839,16.1744 20.2172,16.5078 24.5,17.5C 22.3333,17.8333 20.1667,18.1667 18,18.5C 15.3897,18.4668 13.223,17.8001 11.5,16.5 Z" fill="#9f206b" style="opacity:0.964"/></g>
<g><path d="M 32.5,16.5 C 34.288,16.2148 35.9547,16.5481 37.5,17.5C 36.6667,17.8333 35.8333,18.1667 35,18.5C 33.6244,18.3158 32.7911,17.6491 32.5,16.5 Z" fill="#9f206b" style="opacity:0.905"/></g>
<g><path d="M 11.5,22.5 C 17.2055,22.1712 22.8722,22.5046 28.5,23.5C 25.6667,23.8333 22.8333,24.1667 20,24.5C 16.7485,24.4809 13.9151,23.8142 11.5,22.5 Z" fill="#9f206b" style="opacity:0.972"/></g>
<g><path d="M 32.5,22.5 C 34.288,22.2148 35.9547,22.5481 37.5,23.5C 36.6667,23.8333 35.8333,24.1667 35,24.5C 33.6244,24.3158 32.7911,23.6491 32.5,22.5 Z" fill="#9f206b" style="opacity:0.905"/></g>
<g><path d="M 43.5,49.5 C 42.8333,49.5 42.1667,49.5 41.5,49.5C 40.7886,47.7986 39.4553,46.7986 37.5,46.5C 36.8333,46.5 36.5,46.1667 36.5,45.5C 36.5,44.1667 36.5,42.8333 36.5,41.5C 38.3588,41.4609 39.6921,42.2942 40.5,44C 42.1341,44.4935 43.8008,44.6602 45.5,44.5C 45.762,43.0222 45.4287,41.6888 44.5,40.5C 38.7582,39.6018 36.4249,36.2685 37.5,30.5C 39.6075,30.2779 41.2742,29.2779 42.5,27.5C 45.3905,29.0429 47.0571,31.3762 47.5,34.5C 45.2627,33.551 42.9294,32.8844 40.5,32.5C 40.281,33.675 40.6143,34.675 41.5,35.5C 47.1936,36.6721 49.3602,40.0055 48,45.5C 46.1413,46.5791 44.6413,47.9124 43.5,49.5 Z" fill="#9f206b" style="opacity:0.665"/></g>
<g><path d="M 11.5,28.5 C 15.8839,28.1744 20.2172,28.5078 24.5,29.5C 22.3333,29.8333 20.1667,30.1667 18,30.5C 15.3897,30.4668 13.223,29.8001 11.5,28.5 Z" fill="#9f206b" style="opacity:0.964"/></g>
<g><path d="M 37.5,30.5 C 35.712,30.7852 34.0453,30.4519 32.5,29.5C 33.3333,29.1667 34.1667,28.8333 35,28.5C 36.3756,28.6842 37.2089,29.3509 37.5,30.5 Z" fill="#9f206b" style="opacity:0.905"/></g>
<g><path d="M 11.5,34.5 C 13.337,34.6395 13.6704,35.3061 12.5,36.5C 11.7025,36.0431 11.3691,35.3764 11.5,34.5 Z" fill="#9f206b" style="opacity:0.766"/></g>
<g><path d="M 14.5,34.5 C 16.337,34.6395 16.6704,35.3061 15.5,36.5C 14.7025,36.0431 14.3691,35.3764 14.5,34.5 Z" fill="#9f206b" style="opacity:0.766"/></g>
<g><path d="M 17.5,34.5 C 19.337,34.6395 19.6704,35.3061 18.5,36.5C 17.7025,36.0431 17.3691,35.3764 17.5,34.5 Z" fill="#9f206b" style="opacity:0.766"/></g>
<g><path d="M 20.5,34.5 C 22.337,34.6395 22.6704,35.3061 21.5,36.5C 20.7025,36.0431 20.3691,35.3764 20.5,34.5 Z" fill="#9f206b" style="opacity:0.766"/></g>
<g><path d="M 23.5,34.5 C 25.337,34.6395 25.6704,35.3061 24.5,36.5C 23.7025,36.0431 23.3691,35.3764 23.5,34.5 Z" fill="#9f206b" style="opacity:0.766"/></g>
<g><path d="M 26.5,34.5 C 28.337,34.6395 28.6704,35.3061 27.5,36.5C 26.7025,36.0431 26.3691,35.3764 26.5,34.5 Z" fill="#9f206b" style="opacity:0.766"/></g>
<g><path d="M 29.5,34.5 C 31.337,34.6395 31.6704,35.3061 30.5,36.5C 29.7025,36.0431 29.3691,35.3764 29.5,34.5 Z" fill="#9f206b" style="opacity:0.766"/></g>
<g><path d="M 32.5,34.5 C 34.337,34.6395 34.6704,35.3061 33.5,36.5C 32.7025,36.0431 32.3691,35.3764 32.5,34.5 Z" fill="#9f206b" style="opacity:0.766"/></g>
</svg>