<?xml version="1.0" encoding="utf-8"?>
<!DOCTYPE svg PUBLIC "-//W3C//DTD SVG 1.1//EN" "http://www.w3.org/Graphics/SVG/1.1/DTD/svg11.dtd">
<svg height="48px" style="shape-rendering:geometricPrecision; text-rendering:geometricPrecision; image-rendering:optimizeQuality; fill-rule:evenodd; clip-rule:evenodd" version="1.1" width="48px" xmlns="http://www.w3.org/2000/svg" xmlns:xlink="http://www.w3.org/1999/xlink">
<g><path d="M 13.5,6.5 C 16.6248,5.52056 19.9581,5.18723 23.5,5.5C 23.665,8.8499 23.4983,12.1832 23,15.5C 22,14.5 21,13.5 20,12.5C 16.288,16.5481 12.288,20.2148 8,23.5C 5.81245,22.9407 5.14579,21.6073 6,19.5C 9.5,16 13,12.5 16.5,9C 15.6266,7.95501 14.6266,7.12167 13.5,6.5 Z" fill="#9f206b" style="opacity:0.842"/></g>
<g><path d="M 33.5,5.5 C 38.4539,5.96168 41.1206,8.62835 41.5,13.5C 32.3834,12.2831 32.2168,13.6165 41,17.5C 42.9561,23.3352 41.1227,27.3352 35.5,29.5C 31.5352,28.2139 29.5352,25.5472 29.5,21.5C 38.6166,22.7169 38.7832,21.3835 30,17.5C 29.3333,14.8333 29.3333,12.1667 30,9.5C 31.6268,8.46773 32.7934,7.1344 33.5,5.5 Z" fill="#9f206b" style="opacity:0.792"/></g>
<g><path d="M 21.5,25.5 C 22.8333,25.5 24.1667,25.5 25.5,25.5C 25.5,30.8333 25.5,36.1667 25.5,41.5C 24.1667,41.5 22.8333,41.5 21.5,41.5C 21.5,36.1667 21.5,30.8333 21.5,25.5 Z" fill="#9f206b" style="opacity:1"/></g>
<g><path d="M 13.5,29.5 C 14.8333,29.5 16.1667,29.5 17.5,29.5C 17.5,33.5 17.5,37.5 17.5,41.5C 16.1667,41.5 14.8333,41.5 13.5,41.5C 13.5,37.5 13.5,33.5 13.5,29.5 Z" fill="#9f206b" style="opacity:1"/></g>
<g><path d="M 5.5,33.5 C 6.83333,33.5 8.16667,33.5 9.5,33.5C 9.5,36.1667 9.5,38.8333 9.5,41.5C 8.16667,41.5 6.83333,41.5 5.5,41.5C 5.5,38.8333 5.5,36.1667 5.5,33.5 Z" fill="#9f206b" style="opacity:1"/></g>
<g><path d="M 29.5,33.5 C 30.8333,33.5 32.1667,33.5 33.5,33.5C 33.5,36.1667 33.5,38.8333 33.5,41.5C 32.1667,41.5 30.8333,41.5 29.5,41.5C 29.5,38.8333 29.5,36.1667 29.5,33.5 Z" fill="#9f206b" style="opacity:1"/></g>
<g><path d="M 37.5,33.5 C 38.8333,33.5 40.1667,33.5 41.5,33.5C 41.5,36.1667 41.5,38.8333 41.5,41.5C 40.1667,41.5 38.8333,41.5 37.5,41.5C 37.5,38.8333 37.5,36.1667 37.5,33.5 Z" fill="#9f206b" style="opacity:1"/></g>
</svg>