<?xml version="1.0" encoding="utf-8"?>
<!DOCTYPE svg PUBLIC "-//W3C//DTD SVG 1.1//EN" "http://www.w3.org/Graphics/SVG/1.1/DTD/svg11.dtd">
<svg height="48px" style="shape-rendering:geometricPrecision; text-rendering:geometricPrecision; image-rendering:optimizeQuality; fill-rule:evenodd; clip-rule:evenodd" version="1.1" width="48px" xmlns="http://www.w3.org/2000/svg" xmlns:xlink="http://www.w3.org/1999/xlink">
<g><path d="M 18.5,1.5 C 29.8478,0.792777 34.1811,6.12611 31.5,17.5C 30.5,17.5 29.5,17.5 28.5,17.5C 28.5,15.8333 28.5,14.1667 28.5,12.5C 25.1667,12.5 21.8333,12.5 18.5,12.5C 18.5,11.5 18.5,10.5 18.5,9.5C 21.5719,9.81741 24.5719,9.48408 27.5,8.5C 25.5592,5.66579 22.8926,4.83246 19.5,6C 16.9874,9.37669 15.9874,13.21 16.5,17.5C 15.5,17.5 14.5,17.5 13.5,17.5C 13.7852,15.712 13.4519,14.0453 12.5,12.5C 11.914,12.7093 11.414,13.0426 11,13.5C 9.33945,21.7691 8.67279,30.1024 9,38.5C 10.0113,39.3366 11.1779,39.67 12.5,39.5C 12.3341,34.4889 12.5007,29.4889 13,24.5C 20,23.1667 27,23.1667 34,24.5C 34.4993,29.4889 34.6659,34.4889 34.5,39.5C 35.8221,39.67 36.9887,39.3366 38,38.5C 38.2905,30.1095 37.6239,21.7761 36,13.5C 32.3479,11.4472 32.1812,10.1139 35.5,9.5C 37.374,9.38977 38.874,10.0564 40,11.5C 41.8452,21.4348 42.5119,31.4348 42,41.5C 29.6667,42.8333 17.3333,42.8333 5,41.5C 4.48814,31.4348 5.15481,21.4348 7,11.5C 8.7889,9.77099 10.9556,9.10433 13.5,9.5C 13.5364,5.80015 15.2031,3.13348 18.5,1.5 Z M 16.5,26.5 C 18.1667,26.5 19.8333,26.5 21.5,26.5C 20.424,30.857 20.424,35.1903 21.5,39.5C 19.5,39.5 17.5,39.5 15.5,39.5C 15.2307,35.0685 15.564,30.7352 16.5,26.5 Z M 25.5,26.5 C 27.4672,26.2606 29.3005,26.5939 31,27.5C 31.4988,31.4862 31.6655,35.4862 31.5,39.5C 29.5,39.5 27.5,39.5 25.5,39.5C 26.576,35.1903 26.576,30.857 25.5,26.5 Z" fill="#9f206b" style="opacity:0.842"/></g>
</svg>