<?xml version="1.0" encoding="utf-8"?>
<!DOCTYPE svg PUBLIC "-//W3C//DTD SVG 1.1//EN" "http://www.w3.org/Graphics/SVG/1.1/DTD/svg11.dtd">
<svg height="50px" style="shape-rendering:geometricPrecision; text-rendering:geometricPrecision; image-rendering:optimizeQuality; fill-rule:evenodd; clip-rule:evenodd" version="1.1" width="50px" xmlns="http://www.w3.org/2000/svg" xmlns:xlink="http://www.w3.org/1999/xlink">
<g><path d="M 5.5,-0.5 C 6.83333,-0.5 8.16667,-0.5 9.5,-0.5C 9.5,0.833333 9.5,2.16667 9.5,3.5C 7.83333,3.5 6.16667,3.5 4.5,3.5C 4.903,11.546 7.56967,18.7126 12.5,25C 15.9563,26.123 18.7897,25.2896 21,22.5C 24.1583,16.5278 25.9916,10.1944 26.5,3.5C 24.8333,3.5 23.1667,3.5 21.5,3.5C 21.5,2.16667 21.5,0.833333 21.5,-0.5C 22.8333,-0.5 24.1667,-0.5 25.5,-0.5C 28.724,0.0808602 30.0573,2.08086 29.5,5.5C 29.0762,14.3418 25.9095,22.0085 20,28.5C 19.4111,34.4623 16.7445,35.7956 12,32.5C 9.11317,27.7324 6.44651,22.7324 4,17.5C 2.0324,12.307 1.36574,6.97364 2,1.5C 3.30238,0.915201 4.46905,0.248534 5.5,-0.5 Z" fill="#9f206b" style="opacity:0.706"/></g>
<g><path d="M 49.5,25.5 C 49.5,28.1667 49.5,30.8333 49.5,33.5C 39.6973,39.5612 35.1973,36.8945 36,25.5C 40.4985,21.5413 44.9985,21.5413 49.5,25.5 Z M 40.5,27.5 C 41.8333,27.5 43.1667,27.5 44.5,27.5C 44.5,28.8333 44.5,30.1667 44.5,31.5C 43.1667,31.5 41.8333,31.5 40.5,31.5C 40.5,30.1667 40.5,28.8333 40.5,27.5 Z" fill="#9f206b" style="opacity:0.804"/></g>
<g><path d="M 14.5,35.5 C 15.5,35.5 16.5,35.5 17.5,35.5C 17.345,40.0226 19.345,43.1893 23.5,45C 31.7465,47.5661 37.7465,45.0661 41.5,37.5C 42.086,37.7093 42.586,38.0426 43,38.5C 41.8383,46.2892 37.1717,49.6226 29,48.5C 19.508,49.1686 14.6746,44.8353 14.5,35.5 Z" fill="#9f206b" style="opacity:0.598"/></g>
</svg>