<?xml version="1.0" encoding="utf-8"?>
<!DOCTYPE svg PUBLIC "-//W3C//DTD SVG 1.1//EN" "http://www.w3.org/Graphics/SVG/1.1/DTD/svg11.dtd">
<svg height="64px" style="shape-rendering:geometricPrecision; text-rendering:geometricPrecision; image-rendering:optimizeQuality; fill-rule:evenodd; clip-rule:evenodd" version="1.1" width="64px" xmlns="http://www.w3.org/2000/svg" xmlns:xlink="http://www.w3.org/1999/xlink">
<g><path d="M 25.5,-0.5 C 29.5,-0.5 33.5,-0.5 37.5,-0.5C 45.4767,2.01263 48.81,7.51263 47.5,16C 46.6865,22.8113 44.0198,28.978 39.5,34.5C 39.9767,35.4776 40.6433,36.3109 41.5,37C 46.5453,37.9578 51.2119,39.7911 55.5,42.5C 59.4698,48.034 59.4698,53.534 55.5,59C 51.5039,60.8197 47.5039,62.3197 43.5,63.5C 35.5,63.5 27.5,63.5 19.5,63.5C 14.0732,62.5852 9.23983,60.2518 5,56.5C 3.28864,50.3062 4.78864,45.1396 9.5,41C 13.3634,39.2678 17.3634,37.9344 21.5,37C 22.3567,36.3109 23.0233,35.4776 23.5,34.5C 18.9802,28.978 16.3135,22.8113 15.5,16C 14.6746,7.79431 18.0079,2.29431 25.5,-0.5 Z M 30.5,1.5 C 39.717,1.87956 44.217,6.54623 44,15.5C 43.4247,11.0912 40.9247,9.09119 36.5,9.5C 32.8909,10.0507 29.3909,11.0507 26,12.5C 24.4411,11.9706 22.9411,11.304 21.5,10.5C 20.1936,11.9122 19.3603,13.5789 19,15.5C 18.6123,7.38617 22.4456,2.7195 30.5,1.5 Z M 33.5,12.5 C 38.0753,11.3433 40.7419,13.0099 41.5,17.5C 42.325,18.3857 43.325,18.719 44.5,18.5C 42.8708,23.4774 40.2041,27.9774 36.5,32C 31.054,34.6179 26.554,33.4512 23,28.5C 21.5776,24.9801 20.0776,21.6468 18.5,18.5C 20.9732,18.264 22.6399,16.9307 23.5,14.5C 27.2297,15.6987 30.563,15.032 33.5,12.5 Z M 26.5,35.5 C 29.668,36.792 32.8347,36.792 36,35.5C 36.956,36.5786 37.7894,37.7453 38.5,39C 36.5296,41.3157 34.1963,43.1491 31.5,44.5C 28.8037,43.1491 26.4704,41.3157 24.5,39C 25.305,37.8873 25.9717,36.7206 26.5,35.5 Z M 19.5,40.5 C 20.552,40.3505 21.552,40.5172 22.5,41C 24.7047,43.5402 27.2047,45.7068 30,47.5C 30.6667,52.1667 30.6667,56.8333 30,61.5C 25.2121,60.669 20.3788,59.8357 15.5,59C 7.63031,57.2513 5.46365,52.7513 9,45.5C 11.0398,43.6469 13.3731,42.3136 16,41.5C 15.9827,43.5676 14.9827,45.2343 13,46.5C 12.502,49.4816 12.3354,52.4816 12.5,55.5C 13.8333,55.5 15.1667,55.5 16.5,55.5C 15.9084,52.8728 15.5751,50.2062 15.5,47.5C 19.8035,47.7352 21.4702,50.0685 20.5,54.5C 21.5,54.5 22.5,54.5 23.5,54.5C 23.6488,51.3926 23.1488,48.3926 22,45.5C 20.9326,44.8095 19.7659,44.3095 18.5,44C 19.3366,42.9887 19.67,41.8221 19.5,40.5 Z M 40.5,40.5 C 41.5,40.5 42.5,40.5 43.5,40.5C 43.2865,42.1439 43.6198,43.6439 44.5,45C 41.6483,47.1526 41.1483,49.6526 43,52.5C 46.6815,54.3993 49.1815,53.3993 50.5,49.5C 44.4048,40.9019 45.5714,39.5686 54,45.5C 57.5364,52.7513 55.3697,57.2513 47.5,59C 42.6212,59.8357 37.7879,60.669 33,61.5C 32.3333,56.8333 32.3333,52.1667 33,47.5C 35.9985,45.6671 38.4985,43.3338 40.5,40.5 Z M 45.5,48.5 C 46.7733,49.0768 46.7733,49.7435 45.5,50.5C 44.537,50.0302 44.537,49.3635 45.5,48.5 Z" fill="#9f206b" style="opacity:0.652"/></g>
</svg>