<?xml version="1.0" encoding="utf-8"?>
<!DOCTYPE svg PUBLIC "-//W3C//DTD SVG 1.1//EN" "http://www.w3.org/Graphics/SVG/1.1/DTD/svg11.dtd">
<svg height="48px" style="shape-rendering:geometricPrecision; text-rendering:geometricPrecision; image-rendering:optimizeQuality; fill-rule:evenodd; clip-rule:evenodd" version="1.1" width="48px" xmlns="http://www.w3.org/2000/svg" xmlns:xlink="http://www.w3.org/1999/xlink">
<g><path d="M 22.5,3.5 C 24.2554,4.07217 25.9221,4.9055 27.5,6C 33.5,11.6667 39.5,17.3333 45.5,23C 43.5273,23.4955 41.5273,23.6621 39.5,23.5C 39.5,29.5 39.5,35.5 39.5,41.5C 34.8333,41.5 30.1667,41.5 25.5,41.5C 25.5,37.5 25.5,33.5 25.5,29.5C 24.1667,29.5 22.8333,29.5 21.5,29.5C 21.5,33.5 21.5,37.5 21.5,41.5C 16.8333,41.5 12.1667,41.5 7.5,41.5C 7.5,35.5 7.5,29.5 7.5,23.5C 5.4727,23.6621 3.4727,23.4955 1.5,23C 8.69677,16.6338 15.6968,10.1338 22.5,3.5 Z M 22.5,10.5 C 27.2441,12.9749 31.4107,16.3083 35,20.5C 35.4994,26.1569 35.6661,31.8236 35.5,37.5C 33.5,37.5 31.5,37.5 29.5,37.5C 29.5,33.5 29.5,29.5 29.5,25.5C 25.5,25.5 21.5,25.5 17.5,25.5C 17.5,29.5 17.5,33.5 17.5,37.5C 15.5,37.5 13.5,37.5 11.5,37.5C 11.3339,31.8236 11.5006,26.1569 12,20.5C 15.3955,16.9349 18.8955,13.6015 22.5,10.5 Z" fill="#9f206b" style="opacity:0.902"/></g>
</svg>