<?xml version="1.0" encoding="utf-8"?>
<!DOCTYPE svg PUBLIC "-//W3C//DTD SVG 1.1//EN" "http://www.w3.org/Graphics/SVG/1.1/DTD/svg11.dtd">
<svg height="48px" style="shape-rendering:geometricPrecision; text-rendering:geometricPrecision; image-rendering:optimizeQuality; fill-rule:evenodd; clip-rule:evenodd" version="1.1" width="48px" xmlns="http://www.w3.org/2000/svg" xmlns:xlink="http://www.w3.org/1999/xlink">
<g><path d="M 12.5,5.5 C 19.5,5.5 26.5,5.5 33.5,5.5C 33.5,11.1667 33.5,16.8333 33.5,22.5C 36.8333,22.5 40.1667,22.5 43.5,22.5C 43.6662,28.5092 43.4995,34.5092 43,40.5C 42.5,41 42,41.5 41.5,42C 38.6667,42.1667 35.8333,42.3333 33,42.5C 23.9116,42.2444 14.7449,42.0777 5.5,42C 5,41.5 4.5,41 4,40.5C 3.50051,34.5092 3.33385,28.5092 3.5,22.5C 6.5,22.5 9.5,22.5 12.5,22.5C 12.5,16.8333 12.5,11.1667 12.5,5.5 Z M 15.5,8.5 C 20.5,8.5 25.5,8.5 30.5,8.5C 32.9926,21.3554 28.3259,25.3554 16.5,20.5C 15.5672,16.5705 15.2338,12.5705 15.5,8.5 Z M 6.5,25.5 C 11.5,25.5 16.5,25.5 21.5,25.5C 21.8256,29.8839 21.4922,34.2172 20.5,38.5C 8.53301,42.2024 3.86635,37.8691 6.5,25.5 Z M 25.5,25.5 C 30.5,25.5 35.5,25.5 40.5,25.5C 43.1337,37.8691 38.467,42.2024 26.5,38.5C 25.5078,34.2172 25.1744,29.8839 25.5,25.5 Z" fill="#9f206b" style="opacity:0.921"/></g>
<g><path d="M 19.5,11.5 C 21.8333,11.5 24.1667,11.5 26.5,11.5C 26.5,12.5 26.5,13.5 26.5,14.5C 24.1432,14.6633 21.8098,14.4966 19.5,14C 18.4019,13.2303 18.4019,12.397 19.5,11.5 Z" fill="#9f206b" style="opacity:0.858"/></g>
<g><path d="M 10.5,28.5 C 12.8333,28.5 15.1667,28.5 17.5,28.5C 17.5,29.5 17.5,30.5 17.5,31.5C 15.1432,31.6633 12.8098,31.4966 10.5,31C 9.40191,30.2303 9.40191,29.397 10.5,28.5 Z" fill="#9f206b" style="opacity:0.858"/></g>
<g><path d="M 29.5,28.5 C 31.8333,28.5 34.1667,28.5 36.5,28.5C 36.5,29.5 36.5,30.5 36.5,31.5C 34.1432,31.6633 31.8098,31.4966 29.5,31C 28.4019,30.2303 28.4019,29.397 29.5,28.5 Z" fill="#9f206b" style="opacity:0.858"/></g>
</svg>