<?xml version="1.0" encoding="utf-8"?>
<!DOCTYPE svg PUBLIC "-//W3C//DTD SVG 1.1//EN" "http://www.w3.org/Graphics/SVG/1.1/DTD/svg11.dtd">
<svg height="50px" style="shape-rendering:geometricPrecision; text-rendering:geometricPrecision; image-rendering:optimizeQuality; fill-rule:evenodd; clip-rule:evenodd" version="1.1" width="50px" xmlns="http://www.w3.org/2000/svg" xmlns:xlink="http://www.w3.org/1999/xlink">
<g><path d="M 16.5,0.5 C 25.5374,0.755019 34.5374,1.42169 43.5,2.5C 43.5,17.1667 43.5,31.8333 43.5,46.5C 30.8333,46.5 18.1667,46.5 5.5,46.5C 5.5,31.8333 5.5,17.1667 5.5,2.5C 9.64903,3.08031 13.3157,2.41365 16.5,0.5 Z M 18.5,2.5 C 22.5,2.5 26.5,2.5 30.5,2.5C 30.5,4.5 30.5,6.5 30.5,8.5C 26.5,8.5 22.5,8.5 18.5,8.5C 18.5,6.5 18.5,4.5 18.5,2.5 Z M 8.5,4.5 C 11.2469,4.18665 13.9135,4.51998 16.5,5.5C 14.2573,6.47423 11.924,6.80756 9.5,6.5C 9.5,18.5 9.5,30.5 9.5,42.5C 19.5,42.5 29.5,42.5 39.5,42.5C 39.5,30.5 39.5,18.5 39.5,6.5C 37.076,6.80756 34.7427,6.47423 32.5,5.5C 35.3719,4.21748 38.2053,4.21748 41,5.5C 41.6667,18.1667 41.6667,30.8333 41,43.5C 30.2433,44.6529 19.41,44.8196 8.5,44C 7.17544,30.8334 7.17544,17.6667 8.5,4.5 Z M 11.5,8.5 C 15.7635,9.40885 20.0968,10.0755 24.5,10.5C 28.9032,10.0755 33.2365,9.40885 37.5,8.5C 37.5,19.1667 37.5,29.8333 37.5,40.5C 28.8333,40.5 20.1667,40.5 11.5,40.5C 11.5,29.8333 11.5,19.1667 11.5,8.5 Z" fill="#9f206b" style="opacity:0.974"/></g>
<g><path d="M 27.5,16.5 C 29.5,16.5 31.5,16.5 33.5,16.5C 33.6621,18.5273 33.4955,20.5273 33,22.5C 29.5,26 26,29.5 22.5,33C 20.3225,34.2022 17.9892,34.7022 15.5,34.5C 15.2978,32.0108 15.7978,29.6775 17,27.5C 20.7039,23.9643 24.2039,20.2976 27.5,16.5 Z" fill="#9f206b" style="opacity:0.617"/></g>
</svg>